<?xml version="1.0" encoding="UTF-8" standalone="no"?>
<!-- Created with Inkscape (http://www.inkscape.org/) -->

<svg
   xmlns:dc="http://purl.org/dc/elements/1.1/"
   xmlns:cc="http://creativecommons.org/ns#"
   xmlns:rdf="http://www.w3.org/1999/02/22-rdf-syntax-ns#"
   xmlns:svg="http://www.w3.org/2000/svg"
   xmlns="http://www.w3.org/2000/svg"
   xmlns:sodipodi="http://sodipodi.sourceforge.net/DTD/sodipodi-0.dtd"
   xmlns:inkscape="http://www.inkscape.org/namespaces/inkscape"
   width="569.79761"
   height="218.77089"
   id="svg2"
   version="1.1"
   inkscape:version="0.48.0 r9654"
   sodipodi:docname="zte-logo.svg"
   inkscape:export-filename="d:\wuxch\tex\email-logo\zte-logo.png"
   inkscape:export-xdpi="99.967598"
   inkscape:export-ydpi="99.967598">
  <title
     id="title2816">zte-logo</title>
  <defs
     id="defs4">
    <inkscape:perspective
       sodipodi:type="inkscape:persp3d"
       inkscape:vp_x="0 : 526.18109 : 1"
       inkscape:vp_y="0 : 1000 : 0"
       inkscape:vp_z="744.09448 : 526.18109 : 1"
       inkscape:persp3d-origin="372.04724 : 350.78739 : 1"
       id="perspective10" />
  </defs>
  <sodipodi:namedview
     id="base"
     pagecolor="#ffffff"
     bordercolor="#666666"
     borderopacity="1.0"
     inkscape:pageopacity="0.0"
     inkscape:pageshadow="2"
     inkscape:zoom="0.71563197"
     inkscape:cx="339.24342"
     inkscape:cy="147.37236"
     inkscape:document-units="px"
     inkscape:current-layer="layer1"
     showgrid="true"
     inkscape:window-width="1024"
     inkscape:window-height="712"
     inkscape:window-x="-4"
     inkscape:window-y="-4"
     inkscape:window-maximized="1"
     showguides="false"
     inkscape:guide-bbox="true"
     inkscape:snap-grids="false"
     inkscape:snap-to-guides="true"
     inkscape:snap-global="false"
     units="mm"
     fit-margin-top="5"
     fit-margin-left="5"
     fit-margin-right="5"
     fit-margin-bottom="5">
    <inkscape:grid
       type="xygrid"
       id="grid3610"
       empspacing="5"
       visible="true"
       enabled="true"
       snapvisiblegridlinesonly="true" />
    <sodipodi:guide
       orientation="1,0"
       position="178.71653,-134.5988"
       id="guide2828" />
    <sodipodi:guide
       orientation="0,1"
       position="78.716536,-244.5988"
       id="guide2836" />
    <sodipodi:guide
       orientation="1,0"
       position="213.71653,-124.5988"
       id="guide2838" />
    <sodipodi:guide
       orientation="1,0"
       position="223.71653,-79.598796"
       id="guide2840" />
    <sodipodi:guide
       orientation="1,0"
       position="248.71653,-134.5988"
       id="guide2846" />
    <sodipodi:guide
       orientation="1,0"
       position="278.71653,-139.5988"
       id="guide2848" />
    <sodipodi:guide
       orientation="1,0"
       position="313.71653,-164.5988"
       id="guide2850" />
    <sodipodi:guide
       orientation="1,0"
       position="343.71653,-159.5988"
       id="guide2852" />
    <sodipodi:guide
       orientation="1,0"
       position="423.71653,-119.5988"
       id="guide2864" />
    <sodipodi:guide
       orientation="1,0"
       position="468.71653,-124.5988"
       id="guide2870" />
    <sodipodi:guide
       orientation="1,0"
       position="488.71653,-134.5988"
       id="guide2872" />
    <sodipodi:guide
       orientation="1,0"
       position="513.71653,-134.5988"
       id="guide2874" />
    <sodipodi:guide
       orientation="0,1"
       position="508.71653,-159.5988"
       id="guide2876" />
    <sodipodi:guide
       orientation="1,0"
       position="523.71653,-139.5988"
       id="guide2878" />
    <sodipodi:guide
       orientation="1,0"
       position="543.71653,-169.5988"
       id="guide2880" />
    <sodipodi:guide
       orientation="0,1"
       position="463.71653,-84.598796"
       id="guide2882" />
    <sodipodi:guide
       orientation="1,0"
       position="633.71653,-144.5988"
       id="guide2884" />
    <sodipodi:guide
       orientation="0,1"
       position="488.71653,-204.5988"
       id="guide2886" />
    <sodipodi:guide
       orientation="0,1"
       position="488.71653,-259.05831"
       id="guide2888" />
    <sodipodi:guide
       orientation="1,0"
       position="608.87598,-198.49987"
       id="guide2890" />
  </sodipodi:namedview>
  <metadata
     id="metadata7">
    <rdf:RDF>
      <cc:Work
         rdf:about="">
        <dc:format>image/svg+xml</dc:format>
        <dc:type
           rdf:resource="http://purl.org/dc/dcmitype/StillImage" />
        <dc:title>zte-logo</dc:title>
      </cc:Work>
    </rdf:RDF>
  </metadata>
  <g
     inkscape:label="Layer 1"
     inkscape:groupmode="layer"
     id="layer1"
     transform="translate(-26.283465,-293.99249)">
    <g
       id="g2839">
      <path
         sodipodi:nodetypes="ccccccccccc"
         d="m 124,315.36218 -75,0 0,30 40,0 -45,130 c 0,8 8,15 15,15 l 67,0 0,-30 -42,0 40,-115 0,-30 z"
         style="font-size:144px;font-style:normal;font-weight:normal;fill:#004dff;fill-opacity:1;fill-rule:nonzero;stroke:none;font-family:Adobe Heiti Std;-inkscape-font-specification:Adobe Heiti Std"
         id="path2823"
         inkscape:connector-curvature="0" />
      <path
         sodipodi:nodetypes="ccccccccc"
         d="m 214,315.36218 -80,0 0,30 25,0 0,145 30,0 0,-145 25,0 0,-30 z"
         style="font-size:144px;font-style:normal;font-weight:normal;fill:#004dff;fill-opacity:1;stroke:none;font-family:Adobe Heiti Std;-inkscape-font-specification:Adobe Heiti Std"
         id="path2825"
         inkscape:connector-curvature="0" />
      <path
         sodipodi:nodetypes="ccccccccccccccccccccccccc"
         d="m 424,435.36218 0,-65 0,-25 -45,0 0,-30 -25,0 0,30 -45,0 0,75 c 0,10 5,15 15,15 l 30,0 0,55 25,0 0,-55 45,0 z m -45,-20 0,-45 20,0 0,45 -20,0 z m -45,0 0,-45 20,0 0,45 -20,0 z"
         style="font-size:144px;font-style:normal;font-weight:normal;fill:#000000;fill-opacity:1;stroke:none;font-family:Adobe Heiti Std;-inkscape-font-specification:Adobe Heiti Std"
         id="path2829"
         inkscape:connector-curvature="0" />
      <path
         sodipodi:nodetypes="cccccccccccccccccccccccccccccccc"
         d="m 514.20127,415.20993 -5.19041,0.008 -12.34929,13.1051 c 7.27579,26.69623 22.49788,47.03915 38.19238,61.49866 L 546,465.50874 c -8.62791,-3.80958 -26.84055,-23.67419 -31.79873,-50.29881 z M 478,428.36218 l -12,-13 -5,0 c -7,20 -13.98166,34.73723 -29,50.10585 l 6.20462,23.90148 C 454,475.36218 471.87988,452.6413 478,428.36218 z m -7,-53 c -2,-15 -12,-35 -22,-50 l -15,15 c 10,15 20,30 20,50 l 5,0 12,-15 z m 27.82816,-2.31563 C 498.20215,353.15176 495.59335,335.36218 485,313.36218 l -18,12 c 10.89841,19.0375 13.23256,37.07916 12.38001,57.11251 l 19.44815,-9.42814 z m 20.77766,17.31563 c 5.33354,-8.62717 15.25049,-37.44388 17.27398,-62.80914 l -17.68063,-12.19086 c -1.15633,29.97922 -10.08024,58.56426 -20.19917,75 l -65,0 0,25 110,0 0,-25 -24.39418,0 z"
         style="font-size:144px;font-style:normal;font-weight:normal;fill:#000000;fill-opacity:1;stroke:none;font-family:Adobe Heiti Std;-inkscape-font-specification:Adobe Heiti Std"
         id="path2831"
         inkscape:connector-curvature="0" />
      <path
         sodipodi:nodetypes="cccccccccccccc"
         d="m 294,460.36218 -40,0 0,-50 35,0 0,-30 -35,0 0,-35 40,0 0,-30 -70,0 0,160 c 0,10 5,15 15,15 l 55,0 0,-30 z"
         style="font-size:144px;font-style:normal;font-weight:normal;fill:#004dff;fill-opacity:1;stroke:none;font-family:Adobe Heiti Std;-inkscape-font-specification:Adobe Heiti Std"
         id="path2827"
         inkscape:connector-curvature="0" />
    </g>
    <path
       style="fill:#333333;stroke:#333333;stroke-width:4;stroke-linecap:round;stroke-linejoin:miter;stroke-miterlimit:4;stroke-opacity:1;stroke-dasharray:none"
       d="m 550.36456,17.846824 0,179.337826 0,0"
       id="path3013"
       inkscape:connector-curvature="0"
       transform="translate(26,295.8622)" />
  </g>
</svg>
