<?xml version="1.0" encoding="UTF-8"?>
<!DOCTYPE svg PUBLIC "-//W3C//DTD SVG 1.1//EN" "http://www.w3.org/Graphics/SVG/1.1/DTD/svg11.dtd">
<!-- Creator: CorelDRAW -->
<svg xmlns="http://www.w3.org/2000/svg" xml:space="preserve" width="1480px" height="3391px" style="shape-rendering:geometricPrecision; text-rendering:geometricPrecision; image-rendering:optimizeQuality; fill-rule:evenodd; clip-rule:evenodd"
viewBox="0 0 2603.86 5964.2"
 xmlns:xlink="http://www.w3.org/1999/xlink">
 <defs>
  <style type="text/css">
   <![CDATA[
    .str5 {stroke:#EF9BA0;stroke-width:1.58297}
    .str4 {stroke:#007CC3;stroke-width:21.985}
    .str0 {stroke:#DA251D;stroke-width:21.985}
    .str3 {stroke:#DD137B;stroke-width:21.985}
    .str2 {stroke:#EF9BA0;stroke-width:21.985;stroke-opacity:0.501961}
    .str1 {stroke:#F5C491;stroke-width:43.972}
    .str6 {stroke:#EF9BA0;stroke-width:58.628}
    .fil0 {fill:none}
    .fil5 {fill:#EF9BA0}
    .fil4 {fill:#F5C491}
    .fil2 {fill:#F5C491;fill-opacity:0.360784}
    .fil1 {fill:#957F66;fill-opacity:0.501961}
    .fil3 {fill:#F5C491;fill-opacity:0.690196}
   ]]>
  </style>
    <mask id="id0">
  <linearGradient id="id1" gradientUnits="userSpaceOnUse" x1="1672.29" y1="3656.86" x2="1641.98" y2="3270.42" spreadMethod="reflect">
   <stop offset="0" style="stop-opacity:1; stop-color:white"/>
   <stop offset="1" style="stop-opacity:0; stop-color:white"/>
  </linearGradient>
     <rect style="fill:url(#id1)" x="1446.67" y="2908.29" width="420.932" height="1110.7"/>
    </mask>
    <mask id="id2">
  <linearGradient id="id3" gradientUnits="userSpaceOnUse" x1="1700.79" y1="3623.66" x2="1669.4" y2="3223.48" spreadMethod="reflect">
   <stop offset="0" style="stop-opacity:1; stop-color:white"/>
   <stop offset="1" style="stop-opacity:0; stop-color:white"/>
  </linearGradient>
     <rect style="fill:url(#id3)" x="1499.44" y="2908.29" width="371.322" height="1030.56"/>
    </mask>
 </defs>
 <g id="Vrstva_x0020_1">
  <metadata id="CorelCorpID_0Corel-Layer"/>
  <g id="_155029032">
   <path id="_156701312" class="fil0 str0" d="M1322.74 4254.09c-46.6622,-89.0824 -114.073,-198.21 -188.236,-241.536 -36.1216,-21.1021 -176.765,-96.1061 -220.585,-14.8471 -59.0829,109.561 46.0556,162.435 160.389,199.637 91.783,29.8666 189.497,47.3748 212.909,93.0627"/>
   <path id="_156486600" class="fil0 str0" d="M1319.04 4441c-106.051,-78.4774 -161.186,-157.077 -296.941,-169.681 -161.182,-14.9655 -290.578,-144.229 -222.706,-313.91 72.1144,-180.286 354.209,-93.3245 453.896,6.36303 106.94,106.94 156.955,208.412 184.528,366.935"/>
   <path id="_156815640" class="fil0 str1" d="M1856.59 7.36433c19.087,209.957 186.483,647.563 267.218,916.177 225.909,751.631 385.218,1361.58 334.023,1899.16l-95.4351 1002.07c-11.8951,124.924 -3.31758,255.117 -4.49131,382.605 -1.03662,112.486 -13.8956,222.349 5.01689,332.145 18.8627,109.518 62.4421,213.256 96.8498,306.497 35.4194,95.9814 39.5326,160.48 72.0977,311.533 9.83019,45.5965 24.7687,102.328 32.5173,161.679 21.422,164.043 31.4142,344.532 -18.7276,330.884 -60.3314,-16.4197 -112.779,-539.202 -123.511,-529.172 6.77435,55.568 63.728,465.085 69.5072,600.56 3.3716,79.0757 -69.9456,82.2582 -86.6062,31.9253 -50.0068,-151.086 -102.282,-574.912 -124.359,-630.37 30.3818,148.841 75.7269,579.58 77.8022,644.856 2.765,86.9303 -74.6072,115.598 -106.107,-11.731 -39.9523,-161.496 -73.2756,-485.903 -111.423,-601 48.0001,331.407 62.3756,494.848 55.0258,592.676 -2.32044,30.8866 -46.9427,83.486 -72.4634,14.8554 -48.2909,-129.864 -100.539,-428.966 -124.865,-596.297 -48.8102,208.484 -60.0801,332.724 -126.345,311.518 -33.018,-10.5677 -49.878,-212.755 -20.4539,-380.941 5.6131,-32.0956 -34.2914,23.2626 -61.4324,64.4966 -31.9107,48.482 -60.8653,125.553 -68.6576,201.444 -21.5446,209.824 39.3831,474.066 39.3831,586.201"/>
   <path id="_156540000" class="fil0 str1" d="M1016.76 694.497c154.485,147.326 181.572,186.501 271.672,367.427 121.286,243.549 167.591,483.661 367.743,758.707 195.328,268.417 213.991,195.808 229.044,801.655l38.174 1536.5c4.51,181.518 -33.3109,412.394 -57.2611,553.523l-76.3481 449.845"/>
   <path id="_156315376" class="fil0 str1" d="M1777.17 1982.75l-47.8671 398.663c-16.2493,135.35 -0.610751,272.464 -0.916127,403.079 -0.513114,218.354 86.9822,396 174.706,565.246"/>
   <path id="_154047016" class="fil0" style="mask:url(#id0)" d="M1446.72 2908.34c11.891,212.101 4.64711,390.368 89.0991,601.958 94.3465,236.382 255.406,323.696 331.729,508.642"/>
   <path id="_155545440" class="fil0 str1" d="M409.122 5959.65c-76.3564,-356.33 -95.406,-456.871 -114.535,-674.481 -15.9045,-180.944 2.17087,-373.63 -12.0696,-555.428 -23.1317,-295.298 -61.4304,-638.578 -55.1089,-933.627 5.76682,-269.144 92.1715,-602.66 81.5665,-753.989 -26.1896,-373.722 -82.5158,-378.103 -73.824,-710.902 7.07765,-270.968 70.4109,-489.322 115.955,-732.395 -103.466,-33.2673 -105.026,-39.9087 -206.164,-136.86 -62.9676,-60.3647 -89.8885,-192.85 -121.047,-274.429 95.8298,-197.115 304.079,-375.145 425.359,-565.894 125.356,-197.16 201.425,-393.394 266.082,-615.544"/>
   <path id="_155895504" class="fil0" style="mask:url(#id2)" d="M1499.49 2908.34c11.891,212.101 0.157881,392.217 89.0991,601.958 90.5283,213.483 201.98,243.557 282.119,428.502"/>
   <path id="_155622304" class="fil1 str2" d="M1588.67 3992.68c-112.962,-2.38484 72.4717,321.943 -8.76864,401.662 -86.7371,85.1126 -79.6781,174.563 -98.601,190.099 -28.6201,23.4952 -149.915,75.9949 -164.658,139.185 -74.3434,318.625 369.249,27.5129 422.355,-81.1261 71.246,-145.741 120.127,-655.392 -150.328,-649.821z"/>
   <path id="_288876736" class="fil0 str1" d="M1899.53 4514.29c-109.75,338.795 -550.831,602.377 -873.227,613.169 -145.521,4.87147 -311.061,-75.3904 -417.791,-158 -93.8459,-72.6337 -201.984,-87.0341 -326.602,-273.347"/>
   <path id="_155703328" class="fil0 str3" d="M1285.71 4288.18c31.4703,55.3395 101.131,99.2118 34.3454,156.462 -45.071,38.6352 -161.191,214.455 -195.339,274.049 -48.3345,84.3502 -87.0985,167.213 -122.524,265.095"/>
   <path id="_157255768" class="fil0 str3" d="M1320.06 4250.02c23.8962,39.6324 49.9674,137.837 71.6926,118.899l38.9842 -33.9819c19.0891,-16.6399 35.5752,16.6232 20.9546,44.8508 -24.3719,47.0507 -97.8906,110.652 -116.367,129.731 -52.562,54.2696 -149.786,207.506 -183.176,274.763 -28.4436,57.2984 -72.588,158.812 -94.5543,233.762"/>
   <path id="_156251280" class="fil0 str4" d="M839.22 4935.52c21.4635,-68.6908 65.3379,-176.692 92.0656,-264.287 25.9133,-84.9235 -48.9079,-79.4164 -149.306,-139.769 -69.3161,-41.6682 -208.503,-121.787 -196.192,-149.171 37.5363,-83.4839 588.008,-62.172 589.149,30.0598 1.53311,123.97 -194.42,154.481 -205.967,215.471 -12.0655,63.7383 -87.9814,253.701 -105.155,310.943"/>
   <path id="_155989144" class="fil0 str1" d="M535.816 4922.47c159.076,0 315.995,-5.44483 449.617,52.7178 79.0487,34.4098 145.847,113.573 220.936,123.754"/>
   <g>
    <g>
     <g>
      <g>
       <g>
        <g>
         <g>
          <path id="_156143728" class="fil2 str5" d="M1533.76 2933.45c103.036,0 240.418,-15.2646 179.359,106.852 -7.63231,19.0808 -122.117,7.63231 -148.83,7.63231 -30.5293,0 -45.7939,-103.036 -30.5293,-114.485z"/>
          <path id="_156143728" class="fil0 str5" d="M1533.76 2933.45c103.036,0 240.418,-15.2646 179.359,106.852 -7.63231,19.0808 -122.117,7.63231 -148.83,7.63231 -30.5293,0 -45.7939,-103.036 -30.5293,-114.485z"/>
         </g>
         <path id="_157255232" class="fil0 str5" d="M1533.76 2933.45c103.036,0 240.418,-15.2646 179.359,106.852 -7.63231,19.0808 -122.117,7.63231 -148.83,7.63231 -30.5293,0 -45.7939,-103.036 -30.5293,-114.485z"/>
        </g>
        <path id="_155198456" class="fil0 str5" d="M1533.76 2933.45c103.036,0 240.418,-15.2646 179.359,106.852 -7.63231,19.0808 -122.117,7.63231 -148.83,7.63231 -30.5293,0 -45.7939,-103.036 -30.5293,-114.485z"/>
       </g>
       <path id="_154563304" class="fil0 str5" d="M1533.76 2933.45c103.036,0 240.418,-15.2646 179.359,106.852 -7.63231,19.0808 -122.117,7.63231 -148.83,7.63231 -30.5293,0 -45.7939,-103.036 -30.5293,-114.485z"/>
      </g>
      <path id="_18561792" class="fil0 str5" d="M1533.76 2933.45c103.036,0 240.418,-15.2646 179.359,106.852 -7.63231,19.0808 -122.117,7.63231 -148.83,7.63231 -30.5293,0 -45.7939,-103.036 -30.5293,-114.485z"/>
     </g>
     <path id="_155943776" class="fil0 str5" d="M1533.76 2933.45c103.036,0 240.418,-15.2646 179.359,106.852 -7.63231,19.0808 -122.117,7.63231 -148.83,7.63231 -30.5293,0 -45.7939,-103.036 -30.5293,-114.485z"/>
    </g>
    <path id="_156701288" class="fil0 str5" d="M1533.76 2933.45c103.036,0 240.418,-15.2646 179.359,106.852 -7.63231,19.0808 -122.117,7.63231 -148.83,7.63231 -30.5293,0 -45.7939,-103.036 -30.5293,-114.485z"/>
   </g>
   <g id="_155045064">
    <g>
     <g>
      <g>
       <g>
        <g>
         <g>
          <path id="_154563224" class="fil3 str5" d="M1556.66 3117.58c112.011,-7.23138 239.097,-30.4233 179.359,102.079 -8.44249,18.7256 -122.117,7.63231 -148.83,7.63231 -30.5293,0 -49.5643,-108.481 -30.5293,-109.711z"/>
          <path id="_154563224" class="fil0 str5" d="M1556.66 3117.58c112.011,-7.23138 239.097,-30.4233 179.359,102.079 -8.44249,18.7256 -122.117,7.63231 -148.83,7.63231 -30.5293,0 -49.5643,-108.481 -30.5293,-109.711z"/>
         </g>
         <path id="_155293240" class="fil0 str5" d="M1556.66 3117.58c112.011,-7.23138 239.097,-30.4233 179.359,102.079 -8.44249,18.7256 -122.117,7.63231 -148.83,7.63231 -30.5293,0 -49.5643,-108.481 -30.5293,-109.711z"/>
        </g>
        <path id="_155996616" class="fil0 str5" d="M1556.66 3117.58c112.011,-7.23138 239.097,-30.4233 179.359,102.079 -8.44249,18.7256 -122.117,7.63231 -148.83,7.63231 -30.5293,0 -49.5643,-108.481 -30.5293,-109.711z"/>
       </g>
       <path id="_155837576" class="fil0 str5" d="M1556.66 3117.58c112.011,-7.23138 239.097,-30.4233 179.359,102.079 -8.44249,18.7256 -122.117,7.63231 -148.83,7.63231 -30.5293,0 -49.5643,-108.481 -30.5293,-109.711z"/>
      </g>
      <path id="_155259040" class="fil0 str5" d="M1556.66 3117.58c112.011,-7.23138 239.097,-30.4233 179.359,102.079 -8.44249,18.7256 -122.117,7.63231 -148.83,7.63231 -30.5293,0 -49.5643,-108.481 -30.5293,-109.711z"/>
     </g>
     <path id="_156260480" class="fil0 str5" d="M1556.66 3117.58c112.011,-7.23138 239.097,-30.4233 179.359,102.079 -8.44249,18.7256 -122.117,7.63231 -148.83,7.63231 -30.5293,0 -49.5643,-108.481 -30.5293,-109.711z"/>
    </g>
    <path class="fil0 str5" d="M1556.66 3117.58c112.011,-7.23138 239.097,-30.4233 179.359,102.079 -8.44249,18.7256 -122.117,7.63231 -148.83,7.63231 -30.5293,0 -49.5643,-108.481 -30.5293,-109.711z"/>
   </g>
   <path class="fil4 str5" d="M1585.91 3325.88c59.5503,-13.0377 178.788,-9.93613 198.872,3.47547 21.3119,14.2322 15.0091,53.8728 -6.79097,100.196 -8.74787,18.5926 -122.117,7.63231 -148.83,7.63231 -30.5293,0 -61.8895,-107.224 -43.2512,-111.304z"/>
   <path class="fil4 str5" d="M1678.77 3547.85c103.032,0.382239 179.968,-25.4521 156.475,106.852 -3.5918,20.2317 -99.2325,7.63231 -125.946,7.63231 -30.5293,0 -49.5207,-114.553 -30.5293,-114.485z"/>
   <g>
    <g id="_155980320">
     <g>
      <g>
       <g>
        <g>
         <g>
          <path id="_156261240" class="fil2 str5" d="M1396.38 2954.43c43.0517,9.97145 51.3634,99.9846 -1.90704,115.764 -49.7617,14.7411 -101.127,8.26799 -154.553,8.26799 -83.9555,0 -76.9526,-112.081 -3.81616,-118.301 59.783,-5.08544 101.827,-19.2677 160.277,-5.73151z"/>
          <path id="_156261240" class="fil0 str5" d="M1396.38 2954.43c43.0517,9.97145 51.3634,99.9846 -1.90704,115.764 -49.7617,14.7411 -101.127,8.26799 -154.553,8.26799 -83.9555,0 -76.9526,-112.081 -3.81616,-118.301 59.783,-5.08544 101.827,-19.2677 160.277,-5.73151z"/>
         </g>
         <path id="_156691832" class="fil0 str5" d="M1396.38 2954.43c43.0517,9.97145 51.3634,99.9846 -1.90704,115.764 -49.7617,14.7411 -101.127,8.26799 -154.553,8.26799 -83.9555,0 -76.9526,-112.081 -3.81616,-118.301 59.783,-5.08544 101.827,-19.2677 160.277,-5.73151z"/>
        </g>
        <path id="_157279552" class="fil0 str5" d="M1396.38 2954.43c43.0517,9.97145 51.3634,99.9846 -1.90704,115.764 -49.7617,14.7411 -101.127,8.26799 -154.553,8.26799 -83.9555,0 -76.9526,-112.081 -3.81616,-118.301 59.783,-5.08544 101.827,-19.2677 160.277,-5.73151z"/>
       </g>
       <path id="_30711768" class="fil0 str5" d="M1396.38 2954.43c43.0517,9.97145 51.3634,99.9846 -1.90704,115.764 -49.7617,14.7411 -101.127,8.26799 -154.553,8.26799 -83.9555,0 -76.9526,-112.081 -3.81616,-118.301 59.783,-5.08544 101.827,-19.2677 160.277,-5.73151z"/>
      </g>
      <path id="_155406648" class="fil0 str5" d="M1396.38 2954.43c43.0517,9.97145 51.3634,99.9846 -1.90704,115.764 -49.7617,14.7411 -101.127,8.26799 -154.553,8.26799 -83.9555,0 -76.9526,-112.081 -3.81616,-118.301 59.783,-5.08544 101.827,-19.2677 160.277,-5.73151z"/>
     </g>
     <path class="fil0 str5" d="M1396.38 2954.43c43.0517,9.97145 51.3634,99.9846 -1.90704,115.764 -49.7617,14.7411 -101.127,8.26799 -154.553,8.26799 -83.9555,0 -76.9526,-112.081 -3.81616,-118.301 59.783,-5.08544 101.827,-19.2677 160.277,-5.73151z"/>
    </g>
    <path class="fil0 str5" d="M1396.38 2954.43c43.0517,9.97145 51.3634,99.9846 -1.90704,115.764 -49.7617,14.7411 -101.127,8.26799 -154.553,8.26799 -83.9555,0 -76.9526,-112.081 -3.81616,-118.301 59.783,-5.08544 101.827,-19.2677 160.277,-5.73151z"/>
   </g>
   <path class="fil4 str5" d="M1758.91 3727.21c53.4262,0 133.565,-11.4485 133.565,53.4262 0,41.9777 7.63231,175.543 -45.7939,64.8747 -15.2646,-30.5293 -91.5878,-99.2201 -87.7716,-118.301z"/>
   <g>
    <g>
     <g id="_155229576">
      <g>
       <g>
        <g>
         <g>
          <path id="_155099168" class="fil3 str5" d="M1228.47 3181.5c-39.0403,143.616 34.603,164.614 167.911,99.2201 68.9463,-33.8219 22.8969,-106.852 0,-129.749 -22.8969,-22.8969 -162.262,9.75125 -167.911,30.5293z"/>
          <path id="_155099168" class="fil0 str5" d="M1228.47 3181.5c-39.0403,143.616 34.603,164.614 167.911,99.2201 68.9463,-33.8219 22.8969,-106.852 0,-129.749 -22.8969,-22.8969 -162.262,9.75125 -167.911,30.5293z"/>
         </g>
         <path id="_154099136" class="fil0 str5" d="M1228.47 3181.5c-39.0403,143.616 34.603,164.614 167.911,99.2201 68.9463,-33.8219 22.8969,-106.852 0,-129.749 -22.8969,-22.8969 -162.262,9.75125 -167.911,30.5293z"/>
        </g>
        <path id="_156801672" class="fil0 str5" d="M1228.47 3181.5c-39.0403,143.616 34.603,164.614 167.911,99.2201 68.9463,-33.8219 22.8969,-106.852 0,-129.749 -22.8969,-22.8969 -162.262,9.75125 -167.911,30.5293z"/>
       </g>
       <path id="_156528936" class="fil0 str5" d="M1228.47 3181.5c-39.0403,143.616 34.603,164.614 167.911,99.2201 68.9463,-33.8219 22.8969,-106.852 0,-129.749 -22.8969,-22.8969 -162.262,9.75125 -167.911,30.5293z"/>
      </g>
      <path class="fil0 str5" d="M1228.47 3181.5c-39.0403,143.616 34.603,164.614 167.911,99.2201 68.9463,-33.8219 22.8969,-106.852 0,-129.749 -22.8969,-22.8969 -162.262,9.75125 -167.911,30.5293z"/>
     </g>
     <path class="fil0 str5" d="M1228.47 3181.5c-39.0403,143.616 34.603,164.614 167.911,99.2201 68.9463,-33.8219 22.8969,-106.852 0,-129.749 -22.8969,-22.8969 -162.262,9.75125 -167.911,30.5293z"/>
    </g>
    <path class="fil0 str5" d="M1228.47 3181.5c-39.0403,143.616 34.603,164.614 167.911,99.2201 68.9463,-33.8219 22.8969,-106.852 0,-129.749 -22.8969,-22.8969 -162.262,9.75125 -167.911,30.5293z"/>
   </g>
   <path class="fil4 str5" d="M1262.81 3456.26c127.132,-113.116 188.992,-78.5085 190.808,-68.6908 20.8196,112.576 43.38,130.352 -110.669,186.992 -78.2426,28.7676 -90.8337,-108.784 -80.1393,-118.301z"/>
   <path class="fil4 str5" d="M1514.68 3578.38c-59.5669,0 -143.527,43.193 -163.492,97.5769 -14.5687,39.6864 10.1127,100.149 67.0289,108.496 33.2319,4.87355 114.942,-42.8274 137.513,-102.004 13.5425,-35.5046 -0.980526,-82.6031 -41.0491,-104.069z"/>
   <path class="fil4 str5" d="M1631.92 3753.28c-87.8132,7.11712 -140.138,141.836 -10.389,141.836 61.0585,0 69.4345,-146.622 10.389,-141.836z"/>
   <path class="fil4 str5" d="M1785.63 3944.73c-47.4329,-92.8093 -90.9521,2.54687 -41.342,52.1569 72.507,72.507 71.4995,6.84706 41.342,-52.1569z"/>
   <path class="fil5 str5" d="M1068.09 4021.13c-6.95716,-2.45755 -14.336,1.26928 -22.8035,2.7193 -14.9821,2.56973 -25.7575,16.7707 -32.2826,22.4877 -12.296,10.8086 -8.87251,25.5331 -2.13763,41.583 6.24047,14.8637 17.2942,27.5191 29.5861,36.8881 8.96184,6.83252 18.0878,12.4311 29.0045,13.3181 15.6406,1.27759 29.046,-8.87459 29.046,-24.6565 0,-10.7671 -14.1304,-26.7817 -13.4282,-23.5659 1.43547,6.60816 2.76708,11.2179 0.860038,11.7476 -1.96936,0.546352 -6.82213,-2.10024 -6.61647,-7.63855 0.353156,-9.0574 11.3861,-8.49651 20.5516,-8.49651 7.24592,0 9.43756,-7.25215 -0.27006,-7.94184 -4.16931,-0.294989 -13.208,0.901585 -19.839,5.06674 -6.63309,4.16724 -10.8502,11.3031 -10.8502,10.8336 0,-3.05999 -6.41704,-13.2537 -9.31292,-14.255 -1.95274,-0.67515 17.1073,0.216048 17.529,0 17.7139,-9.05532 6.6601,-52.5433 -9.03663,-58.0899z"/>
   <path class="fil0 str6" d="M1470.61 2909.67c8.05818,221.665 12.6201,461.445 118.187,658.085 86.2032,160.569 245.331,306.446 279.35,421.711"/>
  </g>
 </g>
</svg>
