<?xml version="1.0" encoding="UTF-8" standalone="no"?>
<!-- Creator: CorelDRAW -->
<svg
   xmlns:dc="http://purl.org/dc/elements/1.1/"
   xmlns:cc="http://web.resource.org/cc/"
   xmlns:rdf="http://www.w3.org/1999/02/22-rdf-syntax-ns#"
   xmlns:svg="http://www.w3.org/2000/svg"
   xmlns="http://www.w3.org/2000/svg"
   xmlns:sodipodi="http://sodipodi.sourceforge.net/DTD/sodipodi-0.dtd"
   xmlns:inkscape="http://www.inkscape.org/namespaces/inkscape"
   xml:space="preserve"
   width="1579px"
   height="3391px"
   style="shape-rendering:geometricPrecision; text-rendering:geometricPrecision; image-rendering:optimizeQuality; fill-rule:evenodd; clip-rule:evenodd"
   viewBox="0 0 2399.65 5152.35"
   id="svg2"
   sodipodi:version="0.32"
   inkscape:version="0.44.1"
   sodipodi:docname="Month_5.svg"
   sodipodi:docbase="C:\temp\webdesign"><metadata
   id="metadata109"><rdf:RDF><cc:Work
       rdf:about=""><dc:format>image/svg+xml</dc:format><dc:type
         rdf:resource="http://purl.org/dc/dcmitype/StillImage" /></cc:Work></rdf:RDF></metadata><sodipodi:namedview
   inkscape:window-height="573"
   inkscape:window-width="853"
   inkscape:pageshadow="2"
   inkscape:pageopacity="0.0"
   guidetolerance="10.0"
   gridtolerance="10.0"
   objecttolerance="10.0"
   borderopacity="1.0"
   bordercolor="#666666"
   pagecolor="#ffffff"
   id="base"
   inkscape:zoom="0.22235329"
   inkscape:cx="761.42459"
   inkscape:cy="1164.7834"
   inkscape:window-x="154"
   inkscape:window-y="203"
   inkscape:current-layer="g2383" />
 <defs
   id="defs4">
  <style
   type="text/css"
   id="style6">
   
    .str5 {stroke:#EF9BA0;stroke-width:1.36749}
    .str0 {stroke:#007CC3;stroke-width:18.9924}
    .str1 {stroke:#DA251D;stroke-width:18.9924}
    .str4 {stroke:#DD137B;stroke-width:18.9924}
    .str3 {stroke:#EF9BA0;stroke-width:18.9924;stroke-opacity:0.501961}
    .str2 {stroke:#F5C491;stroke-width:37.9865}
    .str6 {stroke:#EF9BA0;stroke-width:50.6475}
    .fil0 {fill:none}
    .fil5 {fill:#EF9BA0}
    .fil4 {fill:#F5C491}
    .fil2 {fill:#F5C491;fill-opacity:0.360784}
    .fil1 {fill:#957F66;fill-opacity:0.501961}
    .fil3 {fill:#F5C491;fill-opacity:0.690196}
   
  </style>
    <mask
   id="id0">
  <linearGradient
   id="id1"
   gradientUnits="userSpaceOnUse"
   x1="1594.89"
   y1="3159.09"
   x2="1568.7"
   y2="2825.25"
   spreadMethod="reflect">
   <stop
   offset="0"
   style="stop-opacity:1; stop-color:white"
   id="stop10" />
   <stop
   offset="1"
   style="stop-opacity:0; stop-color:white"
   id="stop12" />
  </linearGradient>
     <rect
   style="fill:url(#id1)"
   x="1399.98"
   y="2512.41"
   width="363.635"
   height="959.514"
   id="rect14" />
    </mask>
    <mask
   id="id2">
  <linearGradient
   id="id3"
   gradientUnits="userSpaceOnUse"
   x1="1619.51"
   y1="3130.4"
   x2="1592.39"
   y2="2784.7"
   spreadMethod="reflect">
   <stop
   offset="0"
   style="stop-opacity:1; stop-color:white"
   id="stop18" />
   <stop
   offset="1"
   style="stop-opacity:0; stop-color:white"
   id="stop20" />
  </linearGradient>
     <rect
   style="fill:url(#id3)"
   x="1445.56"
   y="2512.41"
   width="320.778"
   height="890.284"
   id="rect22" />
    </mask>
 
 <mask
   id="mask2376">
  <linearGradient
   spreadMethod="reflect"
   y2="2017.49"
   x2="1538.92"
   y1="2255.8899"
   x1="1557.62"
   gradientUnits="userSpaceOnUse"
   id="linearGradient2378">
   <stop
   id="stop2063"
   style="stop-opacity:1; stop-color:white"
   offset="0" />
   <stop
   id="stop2065"
   style="stop-opacity:0; stop-color:white"
   offset="1" />
  </linearGradient>
     <rect
   id="rect2067"
   height="685.18298"
   width="259.67001"
   y="1794.1"
   x="1418.4399"
   style="fill:url(#id1)" />
    </mask>
    <style
   id="style2059"
   type="text/css">
   
    .str5 {stroke:#EF9BA0;stroke-width:0.976519}
    .str0 {stroke:#007CC3;stroke-width:13.5623}
    .str1 {stroke:#DA251D;stroke-width:13.5623}
    .str4 {stroke:#DD137B;stroke-width:13.5623}
    .str3 {stroke:#EF9BA0;stroke-width:13.5623;stroke-opacity:0.501961}
    .str2 {stroke:#F5C491;stroke-width:27.126}
    .str6 {stroke:#EF9BA0;stroke-width:36.1671}
    .fil0 {fill:none}
    .fil5 {fill:#EF9BA0}
    .fil4 {fill:#F5C491}
    .fil2 {fill:#F5C491;fill-opacity:0.360784}
    .fil1 {fill:#957F66;fill-opacity:0.501961}
    .fil3 {fill:#F5C491;fill-opacity:0.690196}
   
  </style>
  </defs>
 <g
   id="Vrstva_x0020_1">
  <metadata
   id="CorelCorpID_0Corel-Layer" />
  <g
   id="_155802064">
   <path
   id="_155755232"
   class="fil0 str0"
   d="M875.214 4263.7c18.5419,-59.3406 56.4441,-152.641 79.5336,-228.312 22.386,-73.3637 -42.2505,-68.6062 -128.982,-120.743 -59.8808,-35.9963 -178.799,-104.662 -169.487,-128.866 16.715,-43.4458 151.253,-8.55671 277.788,-1.62053 118.868,6.51624 230.69,-6.82311 231.166,27.5886 1.47876,107.093 -167.956,133.453 -177.93,186.141 -10.4231,55.0623 -76.0054,219.167 -90.8415,268.618" />
   <path
   id="_155602600"
   class="fil0 str1"
   d="M1293.73 3834.49c-116.908,-150.537 -224.888,-88.2877 -415.745,-109.421 -212.229,-23.4986 -523.289,-342.805 -555.929,-549.934 -61.5337,-390.464 179.296,-468.961 337.057,-466.601 225.633,3.37387 487.25,329.561 569.901,445.301 61.4547,86.0588 115.97,203.051 122.236,317.147 5.93837,108.131 3.36131,220.009 29.053,278.251" />
   <path
   id="_156892552"
   class="fil0 str2"
   d="M1754.1 6.3619c16.4889,181.378 161.099,559.416 230.845,791.467 195.159,649.319 332.782,1176.25 288.556,1640.64l-82.4445 865.667c-10.2759,107.919 -2.866,220.391 -3.87995,330.524 -0.895511,97.1746 -12.0042,192.083 4.33399,286.933 16.2951,94.6101 53.9424,184.228 83.6666,264.777 30.5981,82.9165 34.1515,138.636 62.2838,269.127 8.4921,39.3899 21.3972,88.399 28.0911,139.671 18.506,141.713 27.1381,297.635 -16.1784,285.844 -52.1191,-14.1846 -97.4277,-465.806 -106.699,-457.141 5.85223,48.0041 55.0533,401.778 60.0459,518.812 2.91266,68.3119 -60.4246,71.0612 -74.8174,27.5796 -43.1999,-130.52 -88.3595,-496.655 -107.431,-544.564 26.2462,128.58 65.419,500.688 67.2118,557.078 2.38863,75.0973 -64.4517,99.863 -91.6634,-10.1342 -34.514,-139.513 -63.3013,-419.762 -96.2558,-519.192 41.4663,286.296 53.885,427.489 47.5357,512.001 -2.00458,26.6823 -40.5528,72.1219 -62.5997,12.8333 -41.7175,-112.187 -86.8538,-370.575 -107.869,-515.129 -42.1662,180.105 -51.902,287.434 -109.146,269.115 -28.5236,-9.12919 -43.0886,-183.795 -17.6697,-329.087 4.84904,-27.7268 -29.6237,20.0961 -53.0703,55.7173 -27.567,41.8827 -52.5803,108.463 -59.3119,174.024 -18.6119,181.263 34.0223,409.536 34.0223,506.407" />
   <path
   id="_156477552"
   class="fil0 str2"
   d="M1028.59 599.962c133.456,127.272 156.856,161.115 234.692,317.413 104.777,210.397 144.779,417.825 317.686,655.432 168.74,231.88 184.863,169.155 197.867,692.534l32.9778 1327.36c3.8961,156.81 -28.7766,356.259 -49.4667,478.178l-65.9556 388.612" />
   <path
   id="_156477528"
   class="fil0 str2"
   d="M1685.49 1712.86l-41.3514 344.397c-14.0375,116.926 -0.527616,235.376 -0.791424,348.212 -0.443269,188.632 75.1422,342.096 150.925,488.305" />
   <path
   id="_155018152"
   class="fil0"
   style="mask:url(#id0)"
   d="M1400.02 2512.46c10.2724,183.23 4.01455,337.231 76.9709,520.019 81.5041,204.205 220.64,279.635 286.574,439.405" />
   <path
   id="_155706472"
   class="fil0 str2"
   d="M503.661 5148.42c-65.9628,-307.826 -82.4193,-394.682 -98.9441,-582.671 -13.7395,-156.314 1.87178,-322.779 -10.4267,-479.824 -19.9758,-255.099 -125.673,-572.39 -204.306,-814.894 -111.948,-345.255 -135.314,-547.125 -113.979,-676.413 56.7241,-343.722 136.216,-322.472 214.716,-614.14 60.8571,-226.109 127.658,-372.594 167.003,-582.579 -91.387,1.32981 -175.088,-9.01254 -262.448,-92.7563 -54.3857,-52.1371 -147.716,-191.067 -174.634,-261.541 82.7854,-170.284 313.774,-386.249 434.149,-539.995 133.349,-170.318 257.547,-306.43 313.402,-498.34" />
   <path
   id="_154070168"
   class="fil0"
   style="mask:url(#id2)"
   d="M1445.61 2512.46c10.2724,183.23 0.136391,338.828 76.9709,520.019 78.2056,184.423 174.487,210.404 243.717,370.175" />
   <path
   id="_156711440"
   class="fil1 str3"
   d="M1522.65 3449.2c-97.5856,-2.06021 62.6068,278.12 -7.57506,346.988 -74.9304,73.527 -68.8323,150.801 -85.1795,164.223 -24.7244,20.2971 -129.508,65.6505 -142.245,120.239 -64.2238,275.254 318.987,23.7678 364.864,-70.0832 61.548,-125.903 103.775,-566.18 -129.865,-561.367z" />
   <path
   id="_157421960"
   class="fil0 str2"
   d="M1791.2 3899.8c-94.8111,292.678 -475.852,520.382 -754.363,529.705 -125.713,4.20836 -268.72,-65.1283 -360.922,-136.493 -81.0716,-62.7468 -174.49,-75.1871 -282.145,-236.139" />
   <path
   id="_156099200"
   class="fil0 str4"
   d="M1260.93 3704.48c27.1866,47.8067 87.3653,85.7071 29.6703,135.165 -38.9359,33.3762 -139.249,185.263 -168.749,236.745 -41.7552,72.8684 -75.2427,144.452 -105.846,229.01" />
   <path
   id="_157002008"
   class="fil0 str4"
   d="M1290.6 3671.51c20.6434,34.2376 43.1658,119.074 61.9338,102.715l33.6777 -29.3563c16.4907,-14.3748 30.7327,14.3605 18.1022,38.7457 -21.0544,40.6462 -84.5657,95.59 -100.527,112.072 -45.4073,46.8824 -129.397,179.26 -158.242,237.363 -24.5718,49.499 -62.7073,137.194 -81.6836,201.942" />
   <path
   id="_154109336"
   class="fil0 str2"
   d="M613.109 4252.43c137.422,0 272.982,-4.70368 388.415,45.5419 68.2886,29.726 125.994,98.1132 190.862,106.909" />
   <g
   id="g40">
    <g
   id="g42">
     <g
   id="g44">
      <path
   id="_155544272"
   class="fil2 str5"
   d="M1475.21 2534.15c89.011,0 207.692,-13.1868 154.945,92.3077 -6.5934,16.4835 -105.494,6.5934 -128.571,6.5934 -26.3736,0 -39.5604,-89.011 -26.3736,-98.9011z" />
      <path
   id="path47"
   class="fil0 str5"
   d="M1475.21 2534.15c89.011,0 207.692,-13.1868 154.945,92.3077 -6.5934,16.4835 -105.494,6.5934 -128.571,6.5934 -26.3736,0 -39.5604,-89.011 -26.3736,-98.9011z" />
     </g>
     <path
   id="_155556576"
   class="fil0 str5"
   d="M1475.21 2534.15c89.011,0 207.692,-13.1868 154.945,92.3077 -6.5934,16.4835 -105.494,6.5934 -128.571,6.5934 -26.3736,0 -39.5604,-89.011 -26.3736,-98.9011z" />
    </g>
    <path
   id="_32264624"
   class="fil0 str5"
   d="M1475.21 2534.15c89.011,0 207.692,-13.1868 154.945,92.3077 -6.5934,16.4835 -105.494,6.5934 -128.571,6.5934 -26.3736,0 -39.5604,-89.011 -26.3736,-98.9011z" />
   </g>
   <g
   id="_155848632">
    <g
   id="g52">
     <g
   id="g54">
      <path
   id="_157396640"
   class="fil3 str5"
   d="M1494.99 2693.22c96.7637,-6.24704 206.551,-26.2821 154.945,88.1836 -7.2933,16.1766 -105.494,6.5934 -128.571,6.5934 -26.3736,0 -42.8176,-93.7146 -26.3736,-94.777z" />
      <path
   id="path57"
   class="fil0 str5"
   d="M1494.99 2693.22c96.7637,-6.24704 206.551,-26.2821 154.945,88.1836 -7.2933,16.1766 -105.494,6.5934 -128.571,6.5934 -26.3736,0 -42.8176,-93.7146 -26.3736,-94.777z" />
     </g>
     <path
   id="_156086648"
   class="fil0 str5"
   d="M1494.99 2693.22c96.7637,-6.24704 206.551,-26.2821 154.945,88.1836 -7.2933,16.1766 -105.494,6.5934 -128.571,6.5934 -26.3736,0 -42.8176,-93.7146 -26.3736,-94.777z" />
    </g>
    <path
   class="fil0 str5"
   d="M1494.99 2693.22c96.7637,-6.24704 206.551,-26.2821 154.945,88.1836 -7.2933,16.1766 -105.494,6.5934 -128.571,6.5934 -26.3736,0 -42.8176,-93.7146 -26.3736,-94.777z"
   id="path60" />
   </g>
   <path
   class="fil4 str5"
   d="M1520.27 2873.16c51.4443,-11.263 154.451,-8.58363 171.802,3.00239 18.4109,12.2949 12.9661,46.5397 -5.86659,86.5577 -7.55711,16.0618 -105.494,6.5934 -128.571,6.5934 -26.3736,0 -53.4651,-92.6289 -37.3638,-96.1535z"
   id="path62" />
   <path
   class="fil4 str5"
   d="M1600.49 3064.92c89.0074,0.330209 155.471,-21.9876 135.176,92.3077 -3.10288,17.4777 -85.725,6.5934 -108.802,6.5934 -26.3736,0 -42.78,-98.9603 -26.3736,-98.9011z"
   id="path64" />
   <g
   id="g66">
    <g
   id="_154462704">
     <g
   id="g69">
      <path
   id="_155295480"
   class="fil2 str5"
   d="M1356.53 2552.27c37.1915,8.61414 44.3718,86.3747 -1.64745,100.007 -42.9881,12.7346 -87.3617,7.14256 -133.516,7.14256 -72.5274,0 -66.4778,-96.8247 -3.2967,-102.198 51.6453,-4.39321 87.9665,-16.645 138.46,-4.95133z" />
      <path
   id="path72"
   class="fil0 str5"
   d="M1356.53 2552.27c37.1915,8.61414 44.3718,86.3747 -1.64745,100.007 -42.9881,12.7346 -87.3617,7.14256 -133.516,7.14256 -72.5274,0 -66.4778,-96.8247 -3.2967,-102.198 51.6453,-4.39321 87.9665,-16.645 138.46,-4.95133z" />
     </g>
     <path
   class="fil0 str5"
   d="M1356.53 2552.27c37.1915,8.61414 44.3718,86.3747 -1.64745,100.007 -42.9881,12.7346 -87.3617,7.14256 -133.516,7.14256 -72.5274,0 -66.4778,-96.8247 -3.2967,-102.198 51.6453,-4.39321 87.9665,-16.645 138.46,-4.95133z"
   id="path74" />
    </g>
    <path
   class="fil0 str5"
   d="M1356.53 2552.27c37.1915,8.61414 44.3718,86.3747 -1.64745,100.007 -42.9881,12.7346 -87.3617,7.14256 -133.516,7.14256 -72.5274,0 -66.4778,-96.8247 -3.2967,-102.198 51.6453,-4.39321 87.9665,-16.645 138.46,-4.95133z"
   id="path76" />
   </g>
   <path
   class="fil4 str5"
   d="M1669.72 3219.86c46.1538,0 115.385,-9.89011 115.385,46.1538 0,36.2637 6.5934,151.648 -39.5604,56.0439 -13.1868,-26.3736 -79.1208,-85.7143 -75.8241,-102.198z"
   id="path78" />
   <g
   id="g80">
    <g
   id="g82">
     <g
   id="g84">
      <path
   class="fil3 str5"
   d="M1211.48 2748.43c-33.7261,124.067 29.8928,142.207 145.055,85.7143 59.5614,-29.2181 19.7802,-92.3077 0,-112.088 -19.7802,-19.7802 -140.175,8.42391 -145.055,26.3736z"
   id="path86" />
      <path
   class="fil0 str5"
   d="M1211.48 2748.43c-33.7261,124.067 29.8928,142.207 145.055,85.7143 59.5614,-29.2181 19.7802,-92.3077 0,-112.088 -19.7802,-19.7802 -140.175,8.42391 -145.055,26.3736z"
   id="path88" />
     </g>
     <path
   class="fil0 str5"
   d="M1211.48 2748.43c-33.7261,124.067 29.8928,142.207 145.055,85.7143 59.5614,-29.2181 19.7802,-92.3077 0,-112.088 -19.7802,-19.7802 -140.175,8.42391 -145.055,26.3736z"
   id="path90" />
    </g>
    <path
   class="fil0 str5"
   d="M1211.48 2748.43c-33.7261,124.067 29.8928,142.207 145.055,85.7143 59.5614,-29.2181 19.7802,-92.3077 0,-112.088 -19.7802,-19.7802 -140.175,8.42391 -145.055,26.3736z"
   id="path92" />
   </g>
   <path
   class="fil4 str5"
   d="M1241.15 2985.8c109.827,-97.7184 163.267,-67.822 164.835,-59.3406 17.9856,97.2518 37.4751,112.608 -95.6044,161.538 -67.5923,24.8518 -78.4694,-93.9766 -69.2307,-102.198z"
   id="path94" />
   <path
   class="fil4 str5"
   d="M1458.73 3091.29c-51.4587,0 -123.99,37.3136 -141.238,84.2947 -12.5856,34.2843 8.73617,86.5164 57.9049,93.7272 28.7084,4.21016 99.2959,-36.9977 118.794,-88.119 11.6991,-30.6717 -0.847057,-71.3592 -35.4615,-89.9029z"
   id="path96" />
   <path
   class="fil4 str5"
   d="M1560.01 3242.39c-75.86,6.14834 -121.063,122.529 -8.97485,122.529 52.7472,0 59.9831,-126.664 8.97485,-122.529z"
   id="path98" />
   <path
   class="fil4 str5"
   d="M1692.8 3407.77c-40.9764,-80.1761 -78.5717,2.20019 -35.7146,45.0573 62.6373,62.6373 61.767,5.91504 35.7146,-45.0573z"
   id="path100" />
   
   
   <path
   class="fil0 str6"
   d="M1420.66 2513.6c6.9613,191.492 10.9023,398.634 102.099,568.506 74.4692,138.713 211.936,264.732 241.325,364.308"
   id="path106" />
  <g
   style="fill-rule:evenodd"
   id="g2383"
   transform="matrix(1.070557,1.639598e-2,-1.653738e-2,1.07979,2713.615,1691.168)"><g
     id="g4253"
     transform="matrix(1.003156,-0.25413,0.249791,1.020579,-6672.99,-1714.171)"
     style="fill-rule:evenodd;stroke:none"><path
       id="path4201"
       d="M 4055.933,4175.7277 C 4072.6383,4164.0995 4093.4846,4171.6709 4118.5584,4180.497 C 4127.2083,4183.5418 4195.447,4239.8629 4232.8812,4250.0225 C 4266.5102,4264.0533 4288.9601,4253.6421 4263.2817,4232.3096 C 4236.2727,4210.3148 4081.2337,4073.1024 4051.2872,4055.2106 C 4024.4474,4035.4381 3984.3062,4048.1544 3960.0904,4060.6469 C 3933.5215,4075.228 3914.9207,4117.4793 3905.3286,4149.95 C 3901.1946,4203.3136 3931.5622,4229.4392 3944.402,4278.5891 C 3956.027,4306.4579 3958.0197,4352.7387 3989.796,4356.4802"
       style="fill:#ef9ba0;fill-opacity:1;fill-rule:evenodd;stroke:none;stroke-width:3.31835794;stroke-linecap:butt;stroke-linejoin:miter;stroke-miterlimit:4;stroke-dasharray:none;stroke-opacity:1"
       sodipodi:nodetypes="csccccccc" /><path
       id="path4203"
       d="M 3627.3398,4039.7265 C 3563.8367,3906.3172 3495.5611,3840.0353 3593.2331,3703.7355 C 3683.25,3600.3294 3894.4009,3637.7509 3916.3461,3776.7947 C 3916.6072,3860.5593 3917.1162,3889.6995 3889.7796,3952.5303 C 3805.3458,4086.3384 3762.9473,4039.2698 3627.3398,4039.7265 z "
       style="fill:#ef9ba0;fill-opacity:1;fill-rule:evenodd;stroke:none;stroke-width:3.33463502;stroke-linecap:butt;stroke-linejoin:miter;stroke-miterlimit:4;stroke-dasharray:none;stroke-opacity:1"
       sodipodi:nodetypes="ccccc" /><path
       id="path4205"
       d="M 4046.3856,4173.9181 C 4088.139,4208.1577 4065.5027,4255.808 4068.7759,4313.8383 C 4065.4649,4371.1362 4041.9685,4384.8499 3997.5589,4426.3518 C 3935.0037,4461.562 3909.1458,4452.1033 3835.5423,4445.5734 C 3725.7454,4409.2675 3749.0508,4396.1401 3687.1275,4311.7504 C 3626.5919,4236.4026 3590.0246,4174.8646 3617.1044,4083.8772 C 3626.7609,4045.5234 3647.4255,3987.1737 3683.4538,3993.6791 C 3719.2191,3996.9492 3755.4444,4008.2351 3790.8973,4001.8451 C 3844.2812,3983.2224 3824.5298,4022.51 3856.528,3988.8323 C 3896.1739,3992.1695 3904.3173,3995.3588 3911.9403,4002.5246 C 3936.1272,4021.5705 3947.2286,4030.8975 3948.243,4069.5772"
       style="fill:#ef9ba0;fill-opacity:1;fill-rule:evenodd;stroke:none;stroke-width:3.31835794;stroke-linecap:butt;stroke-linejoin:miter;stroke-miterlimit:4;stroke-dasharray:none;stroke-opacity:1"
       sodipodi:nodetypes="ccccccccccc" /><path
       id="path4207"
       d="M 4146.3516,4287.9886 C 4135.241,4214.2507 4110.313,4104.9314 4042.0236,4066.2627 C 4015.3084,4046.4336 3975.4172,4059.0999 3951.3595,4071.5664 C 3926.1975,4091.7819 3918.2163,4131.7662 3897.0468,4160.8609 C 3893.0168,4214.2622 3923.2489,4240.4549 3936.0887,4289.6645 C 3947.6887,4317.5738 3949.7396,4363.8957 3981.3386,4367.688"
       style="fill:none;fill-rule:evenodd;stroke:none;stroke-width:2.67630458;stroke-linecap:butt;stroke-linejoin:miter;stroke-miterlimit:4;stroke-dasharray:none;stroke-opacity:1"
       sodipodi:nodetypes="cccccc" /><path
       id="path4209"
       d="M 3607.5603,4015.0208 C 3544.3859,3882.3019 3498.1618,3842.6827 3595.3284,3707.0884 C 3684.8794,3604.2174 3894.9374,3641.4452 3916.769,3779.7694 C 3917.0288,3863.1005 3918.0553,3928.9764 3868.4472,3980.3647"
       style="fill:none;fill-rule:evenodd;stroke:none;stroke-width:2.79857588;stroke-linecap:butt;stroke-linejoin:miter;stroke-miterlimit:4;stroke-dasharray:none;stroke-opacity:1"
       sodipodi:nodetypes="cccc" /><path
       id="path4211"
       d="M 4043.4393,4174.5379 C 4085.004,4208.8684 4119.1668,4255.3684 4122.5086,4313.4515 C 4148.7636,4358.9667 4140.6199,4427.4408 4092.6937,4449.7515 C 4030.5512,4484.8966 3981.1752,4500.3355 3907.9852,4493.6898 C 3804.6878,4475.0022 3722.5609,4393.2786 3660.867,4308.7265 C 3600.5664,4233.2257 3567.2123,4129.6201 3593.9995,4038.5983 C 3603.5429,4000.2275 3646.4933,3987.0404 3682.3242,3993.6053 C 3717.8887,3996.9319 3753.9225,4008.2815 3789.162,4001.9395 C 3837.3531,4006.9598 3858.1042,4024.8138 3876.2328,3974.1229 C 3900.3977,3975.8425 3901.9744,3966.1387 3909.5642,3973.3218 C 3941.6213,3983.1912 3960.2375,4002.2135 3954.0525,4064.9799"
       style="fill:none;fill-rule:evenodd;stroke:none;stroke-width:2.67595506;stroke-linecap:butt;stroke-linejoin:miter;stroke-miterlimit:4;stroke-dasharray:none;stroke-opacity:1"
       sodipodi:nodetypes="ccccccccccc" /><path
       style="fill:#ef9ba0;fill-opacity:1;fill-rule:evenodd;stroke:none;stroke-width:2.29902935;stroke-linecap:butt;stroke-linejoin:miter;stroke-miterlimit:4;stroke-dasharray:none;stroke-opacity:1"
       d="M 4217.0896,4313.6777 C 4225.596,4318.6991 4236.5377,4322.5352 4246.0495,4317.9578 C 4255.1056,4312.1017 4258.1967,4300.9273 4259.6812,4290.8609 C 4261.391,4280.3249 4263.2389,4268.3758 4256.8925,4258.9466 C 4246.1434,4241.0937 4232.7416,4224.9786 4222.4411,4206.8384 C 4220.1834,4202.4866 4215.2126,4199.5936 4210.3591,4201.2669 C 4205.4479,4202.5286 4201.8106,4206.9344 4200.9102,4211.8269 C 4196.372,4221.8174 4192.8833,4232.2589 4190.0818,4242.8601 C 4191.4357,4257.5587 4199.4668,4270.3553 4204.1502,4284.0783 C 4208.3845,4293.979 4212.8108,4303.7964 4217.0896,4313.6777 z "
       id="path4213" /><path
       style="fill:none;fill-rule:evenodd;stroke:none;stroke-width:1.00617111;stroke-linecap:butt;stroke-linejoin:miter;stroke-miterlimit:4;stroke-dasharray:none;stroke-opacity:1"
       d="M 4125.9678,4244.4256 C 4126.5462,4246.7511 4127.8796,4249.2674 4126.7425,4251.6392 C 4124.9039,4254.0697 4121.4696,4254.4021 4118.6936,4253.7627 C 4116.5745,4253.5881 4114.1058,4253.5738 4112.5828,4251.8432 C 4110.6153,4251.0388 4113.8042,4249.3992 4113.7524,4251.511 C 4115.9362,4253.4701 4117.9689,4256.0054 4118.1407,4259.0542 C 4119.8172,4261.265 4115.7094,4263.0831 4114.3796,4261.1563 C 4112.5581,4260.6588 4110.2224,4258.6984 4108.4854,4259.8716 C 4108.9487,4261.9188 4111.3418,4262.5809 4112.5575,4264.0956 C 4113.9985,4265.5148 4115.886,4268.5282 4113.3593,4269.8789 C 4110.9827,4271.0666 4108.3113,4269.8254 4105.9367,4269.2412 C 4104.2343,4268.8294 4107.1577,4269.5454 4107.7927,4269.7516 C 4109.4144,4270.1365 4110.9038,4271.4865 4110.7601,4273.2619 C 4110.8918,4275.2078 4110.4389,4277.6112 4108.5719,4278.602 C 4106.3899,4279.2482 4104.0803,4278.3122 4102.1857,4277.3033 C 4099.9796,4275.8117 4099.3111,4280.199 4101.4956,4280.5008 C 4103.0874,4282.8805 4104.3572,4286.0915 4102.9874,4288.8536 C 4101.6519,4290.9851 4098.6201,4290.7182 4096.6774,4289.6872"
       id="path4215" /><path
       sodipodi:nodetypes="cccccccc"
       id="path4217"
       d="M 3681.9938,4124.4035 C 3700.0268,4121.2757 3715.1812,4141.9833 3729.9986,4146.9605 C 3745.8034,4154.4207 3761.4779,4159.5126 3779.8925,4162.5296 C 3796.451,4167.9021 3806.2339,4176.5694 3824.5713,4175.7039 C 3843.432,4176.2781 3883.0873,4174.4103 3897.7965,4161.6166 C 3910.0935,4148.6614 3917.8384,4113.2107 3930.3771,4100.3333 C 3941.9552,4086.2261 3940.6508,4069.7208 3947.1569,4053.707 C 3952.8785,4044.13 3956.6833,4017.7526 3956.0277,4016.9512"
       style="fill:none;fill-rule:evenodd;stroke:none;stroke-width:2.15310383;stroke-linecap:butt;stroke-linejoin:miter;stroke-miterlimit:4;stroke-dasharray:none;stroke-opacity:1" /><path
       style="fill:none;fill-rule:evenodd;stroke:none;stroke-width:2.15310383;stroke-linecap:butt;stroke-linejoin:miter;stroke-miterlimit:4;stroke-dasharray:none;stroke-opacity:1"
       d="M 3914.8321,3972.9667 C 3908.7369,3977.5029 3899.1109,4006.9592 3889.2807,4031.3629 C 3888.1376,4034.2008 3876.719,4047.065 3871.3768,4056.049 C 3866.8675,4063.6323 3865.0168,4070.7083 3861.3127,4081.1079"
       id="path4219"
       sodipodi:nodetypes="cssc" /><path
       sodipodi:nodetypes="csssssc"
       style="fill:#ef9ba0;fill-opacity:1;fill-rule:evenodd;stroke:none;stroke-width:2.63722754;stroke-linecap:butt;stroke-linejoin:miter;stroke-miterlimit:4;stroke-dasharray:none;stroke-opacity:1"
       d="M 3855.7927,4076.3751 C 3849.864,4077.052 3821.7291,4073.4674 3812.3167,4070.2887 C 3798.0274,4065.4631 3796.134,4053.0605 3788.7613,4036.5457 C 3779.5717,4015.9611 3791.2254,4001.0271 3806.2591,3997.7555 C 3823.2911,3994.0489 3826.4207,3985.7692 3840.4477,4005.863 C 3850.519,4020.29 3854.4078,4027.3612 3862.5227,4047.7021 C 3865.4934,4055.1486 3857.6987,4068.9042 3855.7927,4076.3751 z "
       id="path4221" /><path
       id="path4223"
       d="M 3652.8439,3910.429 C 3647.0572,3907.7974 3640.7301,3908.0714 3634.5277,3913.0657 C 3629.7624,3916.9031 3627.2548,3919.2112 3624.6154,3923.3186 C 3621.4063,3928.313 3622.7295,3932.6432 3622.5462,3938.6112 C 3622.3704,3944.3396 3626.1429,3953.0975 3627.7597,3956.3666 C 3630.0881,3961.0754 3633.8833,3964.9116 3637.2848,3969.1358 C 3640.6759,3973.347 3644.3432,3978.1037 3647.8181,3980.3365 C 3650.87,3982.2975 3660.1317,3979.006 3664.8461,3977.9801"
       style="fill:none;fill-rule:evenodd;stroke:none;stroke-width:1.6559236;stroke-linecap:butt;stroke-linejoin:miter;stroke-miterlimit:4;stroke-dasharray:none;stroke-opacity:1" /><path
       id="path4225"
       d="M 3655.1584,3950.3777 C 3650.0563,3948.8496 3645.3358,3944.0858 3641.9839,3939.9232 C 3638.8702,3936.0565 3639.2723,3942.7281 3639.0183,3942.9907"
       style="fill:none;fill-rule:evenodd;stroke:none;stroke-width:1.3716414px;stroke-linecap:butt;stroke-linejoin:miter;stroke-opacity:1" /><path
       id="path4227"
       d="M 3659.558,3959.3567 C 3655.2724,3954.0346 3646.0675,3955.9742 3640.3188,3952.2803"
       style="fill:none;fill-rule:evenodd;stroke:none;stroke-width:1.60492194;stroke-linecap:butt;stroke-linejoin:miter;stroke-miterlimit:4;stroke-dasharray:none;stroke-opacity:1" /><path
       id="path4229"
       d="M 3908.601,3874.7337 C 3905.9706,3874.4824 3900.3374,3878.4159 3897.5331,3880.6741 C 3893.2738,3884.1038 3892.9332,3884.6663 3891.5973,3889.9119 C 3891.0266,3892.1527 3892.3651,3895.2995 3892.4053,3897.6822"
       style="fill:none;fill-rule:evenodd;stroke:none;stroke-width:1.65158296;stroke-linecap:butt;stroke-linejoin:miter;stroke-miterlimit:4;stroke-dasharray:none;stroke-opacity:1" /><path
       id="path4231"
       d="M 3813.1635,3869.9447 C 3816.6564,3873.4142 3822.0955,3873.0881 3826.5133,3871.9817 C 3830.4632,3871.4285 3834.4175,3870.6742 3838.4234,3870.7827 C 3843.9465,3872.1122 3848.554,3875.9611 3854.2217,3876.8294 C 3863.0288,3880.4415 3869.4536,3888.363 3872.8859,3897.0645 C 3873.5395,3898.2537 3874.2124,3899.4333 3874.9329,3900.5836"
       style="fill:none;fill-rule:evenodd;stroke:none;stroke-width:1.70909548;stroke-linecap:butt;stroke-linejoin:miter;stroke-miterlimit:4;stroke-dasharray:none;stroke-opacity:1" /><path
       id="path4233"
       d="M 3858.2746,3897.1085 C 3854.1501,3894.6218 3849.2959,3893.8018 3844.5656,3893.4227 C 3841.4241,3892.8978 3838.4906,3891.3156 3835.249,3891.3696 C 3831.9525,3891.2852 3828.6625,3892.1187 3825.7259,3893.5969"
       style="fill:none;fill-rule:evenodd;stroke:none;stroke-width:1px;stroke-linecap:butt;stroke-linejoin:miter;stroke-opacity:1" /><path
       style="fill:none;fill-rule:evenodd;stroke:none;stroke-width:1px;stroke-linecap:butt;stroke-linejoin:miter;stroke-opacity:1"
       d="M 3787.0015,4021.6442 C 3790.7544,4022.0635 3802.9045,4019.9492 3812.6579,4017.8266"
       id="path4235" /><path
       style="fill:none;fill-rule:evenodd;stroke:none;stroke-width:1px;stroke-linecap:butt;stroke-linejoin:miter;stroke-opacity:1"
       d="M 3801.4503,4055.5819 C 3805.8777,4056.5199 3813.5662,4051.7701 3817.5762,4048.541"
       id="path4239" /><path
       style="fill:none;fill-rule:evenodd;stroke:none;stroke-width:1px;stroke-linecap:butt;stroke-linejoin:miter;stroke-opacity:1"
       d="M 3802.245,4002.4346 C 3808.1169,4000.1531 3815.7392,4005.0748 3822.6251,4006.8285"
       id="path4241" /><path
       style="fill:none;fill-rule:evenodd;stroke:none;stroke-width:1px;stroke-linecap:butt;stroke-linejoin:miter;stroke-opacity:1"
       d="M 3817.2881,4071.5593 C 3823.3728,4072.4396 3828.9026,4067.0254 3832.6801,4061.1463"
       id="path4243" /><path
       style="fill:#ef9ba0;fill-opacity:1;fill-rule:evenodd;stroke:none;stroke-width:2.29902935;stroke-linecap:butt;stroke-linejoin:miter;stroke-miterlimit:4;stroke-dasharray:none;stroke-opacity:1"
       d="M 4228.0588,4257.5696 C 4235.1666,4264.429 4244.9184,4270.7011 4255.2331,4268.4577 C 4265.4016,4264.8645 4271.003,4254.7135 4274.7846,4245.267 C 4278.8943,4235.4161 4283.4663,4224.2227 4279.4831,4213.5775 C 4273.1735,4193.7165 4263.8803,4174.9298 4258.0739,4154.8935 C 4256.8884,4150.1364 4252.7252,4146.1682 4247.6158,4146.6687 C 4242.546,4146.7555 4237.9851,4150.1961 4235.9731,4154.7459 C 4229.2389,4163.4094 4223.421,4172.7553 4218.2343,4182.4162 C 4216.1379,4197.0275 4220.9779,4211.3392 4222.3466,4225.7746 C 4224.166,4236.3879 4226.1915,4246.9648 4228.0588,4257.5696 z "
       id="path4245" /><path
       id="path4251"
       d="M 4039.886,4231.8899 C 4056.5913,4220.2617 4077.4376,4227.8331 4102.5114,4236.6592 C 4111.1613,4239.704 4212.0144,4334.5693 4216.8342,4306.1847 C 4194.1293,4281.6713 4272.9131,4309.8043 4247.2347,4288.4718 C 4220.2257,4266.477 4065.1867,4129.2646 4035.2402,4111.3728 C 4008.4004,4091.6003 3968.2592,4104.3166 3944.0434,4116.8091 C 3917.4745,4131.3902 3898.8737,4173.6415 3889.2816,4206.1122 C 3885.1476,4259.4758 3915.5152,4285.6014 3928.355,4334.7513 C 3939.98,4362.6201 3941.9727,4408.9009 3973.749,4412.6424"
       style="fill:#ef9ba0;fill-opacity:1;fill-rule:evenodd;stroke:none;stroke-width:3.31835794;stroke-linecap:butt;stroke-linejoin:miter;stroke-miterlimit:4;stroke-dasharray:none;stroke-opacity:1"
       sodipodi:nodetypes="csccccccc" /></g><path
     id="path4237"
     d="M 3476.2625,1658.717 C 3477.7865,1658.717 3487.5824,1658.717 3493.1343,1658.717"
     style="fill:none;fill-rule:evenodd;stroke:none;stroke-width:1px;stroke-linecap:butt;stroke-linejoin:miter;stroke-opacity:1" /></g><path
   class="fil0 str1"
   d="M1292.92 3675.03c-23.513,-32.0966 -12.591,-122.418 -11.1768,-178.164 4.60318,-181.29 -128.566,-371.35 -242.786,-484.94 -483.605,-480.947 -674.383,-126.646 -668.775,84.9121 5.94196,224.088 296.43,541.723 583.364,578.186 82.7011,10.5092 288.461,-8.09011 308.686,31.3788"
   id="path104" /></g>
 </g>
</svg>