<?xml version="1.0" encoding="UTF-8" standalone="no"?>
<!-- Creator: CorelDRAW -->
<svg
   xmlns:dc="http://purl.org/dc/elements/1.1/"
   xmlns:cc="http://web.resource.org/cc/"
   xmlns:rdf="http://www.w3.org/1999/02/22-rdf-syntax-ns#"
   xmlns:svg="http://www.w3.org/2000/svg"
   xmlns="http://www.w3.org/2000/svg"
   xmlns:sodipodi="http://sodipodi.sourceforge.net/DTD/sodipodi-0.dtd"
   xmlns:inkscape="http://www.inkscape.org/namespaces/inkscape"
   xml:space="preserve"
   width="1557px"
   height="3391px"
   style="shape-rendering:geometricPrecision; text-rendering:geometricPrecision; image-rendering:optimizeQuality; fill-rule:evenodd; clip-rule:evenodd"
   viewBox="0 0 2436.37 5305.05"
   id="svg2"
   sodipodi:version="0.32"
   inkscape:version="0.44.1"
   sodipodi:docname="Month_3.svg"
   sodipodi:docbase="C:\temp\webdesign"><metadata
   id="metadata156"><rdf:RDF><cc:Work
       rdf:about=""><dc:format>image/svg+xml</dc:format><dc:type
         rdf:resource="http://purl.org/dc/dcmitype/StillImage" /></cc:Work></rdf:RDF></metadata><sodipodi:namedview
   inkscape:window-height="573"
   inkscape:window-width="853"
   inkscape:pageshadow="2"
   inkscape:pageopacity="0.0"
   guidetolerance="10.0"
   gridtolerance="10.0"
   objecttolerance="10.0"
   borderopacity="1.0"
   bordercolor="#666666"
   pagecolor="#ffffff"
   id="base"
   inkscape:zoom="0.44470658"
   inkscape:cx="778.5"
   inkscape:cy="1049.0063"
   inkscape:window-x="220"
   inkscape:window-y="290"
   inkscape:current-layer="g2430" />
 <defs
   id="defs4">
  <style
   type="text/css"
   id="style6">
   
    .str5 {stroke:#EF9BA0;stroke-width:1.40802}
    .str3 {stroke:#007CC3;stroke-width:19.5553}
    .str0 {stroke:#DA251D;stroke-width:19.5553}
    .str4 {stroke:#DD137B;stroke-width:19.5553}
    .str2 {stroke:#EF9BA0;stroke-width:19.5553;stroke-opacity:0.501961}
    .str1 {stroke:#F5C491;stroke-width:39.1124}
    .str6 {stroke:#EF9BA0;stroke-width:52.1486}
    .fil0 {fill:none}
    .fil5 {fill:#EF9BA0}
    .fil4 {fill:#F5C491}
    .fil2 {fill:#F5C491;fill-opacity:0.360784}
    .fil1 {fill:#957F66;fill-opacity:0.501961}
    .fil3 {fill:#F5C491;fill-opacity:0.690196}
   
  </style>
    <mask
   id="id0">
  <linearGradient
   id="id1"
   gradientUnits="userSpaceOnUse"
   x1="1607.76"
   y1="3252.72"
   x2="1580.8"
   y2="2908.98"
   spreadMethod="reflect">
   <stop
   offset="0"
   style="stop-opacity:1; stop-color:white"
   id="stop10" />
   <stop
   offset="1"
   style="stop-opacity:0; stop-color:white"
   id="stop12" />
  </linearGradient>
     <rect
   style="fill:url(#id1)"
   x="1407.07"
   y="2586.87"
   width="374.412"
   height="987.952"
   id="rect14" />
    </mask>
    <mask
   id="id2">
  <linearGradient
   id="id3"
   gradientUnits="userSpaceOnUse"
   x1="1633.11"
   y1="3223.18"
   x2="1605.19"
   y2="2867.23"
   spreadMethod="reflect">
   <stop
   offset="0"
   style="stop-opacity:1; stop-color:white"
   id="stop18" />
   <stop
   offset="1"
   style="stop-opacity:0; stop-color:white"
   id="stop20" />
  </linearGradient>
     <rect
   style="fill:url(#id3)"
   x="1454.01"
   y="2586.87"
   width="330.285"
   height="916.669"
   id="rect22" />
    </mask>
 
 <mask
   id="mask2423">
  <linearGradient
   spreadMethod="reflect"
   y2="2017.49"
   x2="1538.92"
   y1="2255.8899"
   x1="1557.62"
   gradientUnits="userSpaceOnUse"
   id="linearGradient2425">
   <stop
   id="stop2063"
   style="stop-opacity:1; stop-color:white"
   offset="0" />
   <stop
   id="stop2065"
   style="stop-opacity:0; stop-color:white"
   offset="1" />
  </linearGradient>
     <rect
   id="rect2067"
   height="685.18298"
   width="259.67001"
   y="1794.1"
   x="1418.4399"
   style="fill:url(#id1)" />
    </mask>
    <style
   id="style2059"
   type="text/css">
   
    .str5 {stroke:#EF9BA0;stroke-width:0.976519}
    .str0 {stroke:#007CC3;stroke-width:13.5623}
    .str1 {stroke:#DA251D;stroke-width:13.5623}
    .str4 {stroke:#DD137B;stroke-width:13.5623}
    .str3 {stroke:#EF9BA0;stroke-width:13.5623;stroke-opacity:0.501961}
    .str2 {stroke:#F5C491;stroke-width:27.126}
    .str6 {stroke:#EF9BA0;stroke-width:36.1671}
    .fil0 {fill:none}
    .fil5 {fill:#EF9BA0}
    .fil4 {fill:#F5C491}
    .fil2 {fill:#F5C491;fill-opacity:0.360784}
    .fil1 {fill:#957F66;fill-opacity:0.501961}
    .fil3 {fill:#F5C491;fill-opacity:0.690196}
   
  </style>
  </defs>
 <g
   id="Vrstva_x0020_1">
  <metadata
   id="CorelCorpID_0Corel-Layer" />
  <g
   id="_155856104">
   <path
   id="_156595688"
   class="fil0 str0"
   d="M1297.67 3948.13c-120.373,-154.999 -234.26,-90.7251 -428.067,-129.863 -141.126,-28.4986 -355.881,-256.051 -318.716,-402.839 25.5828,-101.04 136.231,-196.356 254.599,-209.54 157.107,-17.4987 310.489,48.902 378.25,118.812 48.2738,49.8056 100.764,135.222 130.159,249.15 27.6172,107.039 46.4592,226.529 72.9123,286.498" />
   <path
   id="_157066976"
   class="fil0 str1"
   d="M1771.69 6.55045c16.9776,186.753 165.873,575.996 237.686,814.924 200.943,668.563 342.645,1211.11 297.108,1689.27l-84.8879 891.323c-10.5805,111.117 -2.95094,226.923 -3.99494,340.32 -0.922052,100.055 -12.3599,197.775 4.46244,295.437 16.778,97.4141 55.5412,189.688 86.1462,272.624 31.505,85.3739 35.1636,142.744 64.1297,277.103 8.74379,40.5573 22.0313,91.0189 28.9236,143.811 19.0545,145.913 27.9424,306.456 -16.6579,294.316 -53.6638,-14.605 -100.315,-479.611 -109.861,-470.69 6.02567,49.4268 56.6849,413.685 61.8255,534.188 2.99898,70.3365 -62.2154,73.1673 -77.0348,28.397 -44.4802,-134.389 -90.9782,-511.375 -110.615,-560.704 27.0241,132.391 67.3578,515.527 69.2038,573.588 2.45942,77.323 -66.3619,102.823 -94.38,-10.4345 -35.5369,-143.648 -65.1774,-432.202 -99.1086,-534.579 42.6952,294.781 55.482,440.159 48.9445,527.175 -2.06399,27.4731 -41.7547,74.2594 -64.4549,13.2136 -42.9539,-115.511 -89.4279,-381.558 -111.066,-530.396 -43.4159,185.443 -53.4402,295.953 -112.381,277.09 -29.3689,-9.39975 -44.3657,-189.242 -18.1934,-338.84 4.99275,-28.5485 -30.5016,20.6917 -54.6431,57.3686 -28.384,43.1239 -54.1387,111.677 -61.0698,179.181 -19.1635,186.635 35.0306,421.673 35.0306,521.416" />
   <path
   id="_157048840"
   class="fil0 str1"
   d="M1024.67 617.743c137.412,131.044 161.505,165.89 241.648,326.82 107.882,216.632 149.069,430.208 327.101,674.857 173.741,238.752 190.342,174.168 203.731,713.058l33.9552 1366.7c4.01157,161.457 -29.6295,366.818 -50.9327,492.35l-67.9103 400.13" />
   <path
   id="_157050056"
   class="fil0 str1"
   d="M1701.05 1763.62l-42.577 354.604c-14.4535,120.392 -0.543253,242.352 -0.814879,358.532 -0.456406,194.222 77.3692,352.235 155.398,502.777" />
   <path
   id="_156193632"
   class="fil0"
   style="mask:url(#id0)"
   d="M1407.12 2586.92c10.5768,188.66 4.13353,347.226 79.2521,535.431 83.9197,210.257 227.18,287.922 295.068,452.428" />
   <path
   id="_155015200"
   class="fil0 str1"
   d="M484.19 5301.01c-67.9177,-316.949 -84.862,-406.379 -101.877,-599.94 -14.1468,-160.947 1.9291,-332.341 -10.7357,-494.044 -20.5715,-262.661 -162.843,-598.081 -158.763,-860.544 5.12395,-329.692 76.9978,-540.365 67.5685,-674.96 -23.286,-332.415 -18.8623,-314.821 27.5636,-606.536 37.8947,-238.104 84.1285,-426.644 124.64,-642.853 -94.0955,1.36922 -150.172,1.48009 -240.127,-84.753 -56.0049,-53.6878 -143.489,-198.879 -171.204,-271.442 85.239,-175.33 288.672,-389.095 412.617,-547.399 137.303,-175.367 265.18,-315.512 322.69,-513.11" />
   <path
   id="_155943408"
   class="fil0"
   style="mask:url(#id2)"
   d="M1454.05 2586.92c10.5768,188.66 0.140433,348.87 79.2521,535.431 80.5234,189.889 179.658,216.64 250.94,381.146" />
   <path
   id="_32263856"
   class="fil1 str2"
   d="M1533.38 3551.42c-100.478,-2.12127 64.4623,286.363 -7.79956,357.272 -77.1512,75.7062 -70.8723,155.271 -87.7039,169.09 -25.4571,20.8986 -133.346,67.5962 -146.46,123.803 -66.1272,283.412 328.441,24.4723 375.678,-72.1603 63.3721,-129.634 106.851,-582.96 -133.714,-578.005z" />
   <path
   id="_155179800"
   class="fil0 str1"
   d="M1809.88 4015.38c-97.6211,301.352 -489.955,535.805 -776.721,545.404 -129.438,4.33309 -276.684,-67.0585 -371.618,-140.538 -83.4743,-64.6065 -179.662,-77.4154 -290.507,-243.137" />
   <path
   id="_155145648"
   class="fil0 str3"
   d="M866.755 4390.06c19.0915,-61.0993 58.117,-157.165 81.8908,-235.079 23.0494,-75.538 -43.5027,-70.6395 -132.805,-124.322 -61.6555,-37.0632 -184.098,-107.764 -174.51,-132.685 17.2104,-44.7334 155.736,-8.81031 286.021,-1.66856 122.391,6.70936 237.527,-7.02533 238.017,28.4062 1.52259,110.267 -172.934,137.408 -183.204,191.657 -10.732,56.6942 -78.258,225.662 -93.5338,276.579" />
   <path
   id="_156518880"
   class="fil0 str4"
   d="M1263.9 3814.27c27.9923,49.2235 89.9546,88.2472 30.5497,139.171 -40.0899,34.3654 -143.376,190.754 -173.75,243.762 -42.9927,75.028 -77.4727,148.733 -108.983,235.798" />
   <path
   id="_155020968"
   class="fil0 str4"
   d="M1294.45 3780.32c21.2552,35.2523 44.4451,122.603 63.7694,105.759l34.6758 -30.2263c16.9794,-14.8009 31.6436,14.7861 18.6388,39.894 -21.6784,41.8508 -87.072,98.423 -103.506,115.393 -46.753,48.2719 -133.232,184.573 -162.932,244.397 -25.3001,50.966 -64.5658,141.261 -84.1044,207.927" />
   <path
   id="_30706232"
   class="fil0 str1"
   d="M596.882 4378.46c141.495,0 281.072,-4.84308 399.927,46.8916 70.3125,30.6069 129.728,101.021 196.519,110.077" />
   <g
   id="g40">
    <g
   id="g42">
     <g
   id="g44">
      <g
   id="g46">
       <g
   id="g48">
        <g
   id="g50">
         <g
   id="g52">
          <path
   id="_155112544"
   class="fil2 str5"
   d="M1484.54 2609.25c91.649,0 213.848,-13.5776 159.537,95.0434 -6.78881,16.972 -108.621,6.78881 -132.382,6.78881 -27.1553,0 -40.7329,-91.649 -27.1553,-101.832z" />
          <path
   id="path55"
   class="fil0 str5"
   d="M1484.54 2609.25c91.649,0 213.848,-13.5776 159.537,95.0434 -6.78881,16.972 -108.621,6.78881 -132.382,6.78881 -27.1553,0 -40.7329,-91.649 -27.1553,-101.832z" />
         </g>
         <path
   id="_155404936"
   class="fil0 str5"
   d="M1484.54 2609.25c91.649,0 213.848,-13.5776 159.537,95.0434 -6.78881,16.972 -108.621,6.78881 -132.382,6.78881 -27.1553,0 -40.7329,-91.649 -27.1553,-101.832z" />
        </g>
        <path
   id="_157067352"
   class="fil0 str5"
   d="M1484.54 2609.25c91.649,0 213.848,-13.5776 159.537,95.0434 -6.78881,16.972 -108.621,6.78881 -132.382,6.78881 -27.1553,0 -40.7329,-91.649 -27.1553,-101.832z" />
       </g>
       <path
   id="_154787344"
   class="fil0 str5"
   d="M1484.54 2609.25c91.649,0 213.848,-13.5776 159.537,95.0434 -6.78881,16.972 -108.621,6.78881 -132.382,6.78881 -27.1553,0 -40.7329,-91.649 -27.1553,-101.832z" />
      </g>
      <path
   id="_154787416"
   class="fil0 str5"
   d="M1484.54 2609.25c91.649,0 213.848,-13.5776 159.537,95.0434 -6.78881,16.972 -108.621,6.78881 -132.382,6.78881 -27.1553,0 -40.7329,-91.649 -27.1553,-101.832z" />
     </g>
     <path
   id="_156913512"
   class="fil0 str5"
   d="M1484.54 2609.25c91.649,0 213.848,-13.5776 159.537,95.0434 -6.78881,16.972 -108.621,6.78881 -132.382,6.78881 -27.1553,0 -40.7329,-91.649 -27.1553,-101.832z" />
    </g>
    <path
   id="_155406536"
   class="fil0 str5"
   d="M1484.54 2609.25c91.649,0 213.848,-13.5776 159.537,95.0434 -6.78881,16.972 -108.621,6.78881 -132.382,6.78881 -27.1553,0 -40.7329,-91.649 -27.1553,-101.832z" />
   </g>
   <g
   id="_155405864">
    <g
   id="g64">
     <g
   id="g66">
      <g
   id="g68">
       <g
   id="g70">
        <g
   id="g72">
         <g
   id="g74">
          <path
   id="_155599760"
   class="fil3 str5"
   d="M1504.9 2773.04c99.6315,-6.43219 212.672,-27.061 159.537,90.7972 -7.50946,16.6561 -108.621,6.78881 -132.382,6.78881 -27.1553,0 -44.0866,-96.4921 -27.1553,-97.586z" />
          <path
   id="path77"
   class="fil0 str5"
   d="M1504.9 2773.04c99.6315,-6.43219 212.672,-27.061 159.537,90.7972 -7.50946,16.6561 -108.621,6.78881 -132.382,6.78881 -27.1553,0 -44.0866,-96.4921 -27.1553,-97.586z" />
         </g>
         <path
   id="_156303752"
   class="fil0 str5"
   d="M1504.9 2773.04c99.6315,-6.43219 212.672,-27.061 159.537,90.7972 -7.50946,16.6561 -108.621,6.78881 -132.382,6.78881 -27.1553,0 -44.0866,-96.4921 -27.1553,-97.586z" />
        </g>
        <path
   id="_156164104"
   class="fil0 str5"
   d="M1504.9 2773.04c99.6315,-6.43219 212.672,-27.061 159.537,90.7972 -7.50946,16.6561 -108.621,6.78881 -132.382,6.78881 -27.1553,0 -44.0866,-96.4921 -27.1553,-97.586z" />
       </g>
       <path
   id="_153676920"
   class="fil0 str5"
   d="M1504.9 2773.04c99.6315,-6.43219 212.672,-27.061 159.537,90.7972 -7.50946,16.6561 -108.621,6.78881 -132.382,6.78881 -27.1553,0 -44.0866,-96.4921 -27.1553,-97.586z" />
      </g>
      <path
   id="_155613768"
   class="fil0 str5"
   d="M1504.9 2773.04c99.6315,-6.43219 212.672,-27.061 159.537,90.7972 -7.50946,16.6561 -108.621,6.78881 -132.382,6.78881 -27.1553,0 -44.0866,-96.4921 -27.1553,-97.586z" />
     </g>
     <path
   id="_153681840"
   class="fil0 str5"
   d="M1504.9 2773.04c99.6315,-6.43219 212.672,-27.061 159.537,90.7972 -7.50946,16.6561 -108.621,6.78881 -132.382,6.78881 -27.1553,0 -44.0866,-96.4921 -27.1553,-97.586z" />
    </g>
    <path
   class="fil0 str5"
   d="M1504.9 2773.04c99.6315,-6.43219 212.672,-27.061 159.537,90.7972 -7.50946,16.6561 -108.621,6.78881 -132.382,6.78881 -27.1553,0 -44.0866,-96.4921 -27.1553,-97.586z"
   id="path84" />
   </g>
   <path
   class="fil4 str5"
   d="M1530.93 2958.31c52.969,-11.5968 159.029,-8.83802 176.894,3.09137 18.9566,12.6593 13.3503,47.919 -6.04046,89.1231 -7.78108,16.5378 -108.621,6.78881 -132.382,6.78881 -27.1553,0 -55.0496,-95.3742 -38.4712,-99.0032z"
   id="path86" />
   <path
   class="fil4 str5"
   d="M1613.52 3155.75c91.6453,0.339995 160.079,-22.6392 139.182,95.0434 -3.19484,17.9957 -88.2657,6.78881 -112.027,6.78881 -27.1553,0 -44.0478,-101.893 -27.1553,-101.832z"
   id="path88" />
   <g
   id="g90">
    <g
   id="_156256496">
     <g
   id="g93">
      <g
   id="g95">
       <g
   id="g97">
        <g
   id="g99">
         <g
   id="g101">
          <path
   id="_288859592"
   class="fil2 str5"
   d="M1362.34 2627.92c38.2938,8.86944 45.6868,88.9346 -1.69628,102.97 -44.2622,13.112 -89.9509,7.35424 -137.473,7.35424 -74.677,0 -68.448,-99.6943 -3.39441,-105.227 53.176,-4.52341 90.5736,-17.1383 142.563,-5.09808z" />
          <path
   id="path104"
   class="fil0 str5"
   d="M1362.34 2627.92c38.2938,8.86944 45.6868,88.9346 -1.69628,102.97 -44.2622,13.112 -89.9509,7.35424 -137.473,7.35424 -74.677,0 -68.448,-99.6943 -3.39441,-105.227 53.176,-4.52341 90.5736,-17.1383 142.563,-5.09808z" />
         </g>
         <path
   id="_156477984"
   class="fil0 str5"
   d="M1362.34 2627.92c38.2938,8.86944 45.6868,88.9346 -1.69628,102.97 -44.2622,13.112 -89.9509,7.35424 -137.473,7.35424 -74.677,0 -68.448,-99.6943 -3.39441,-105.227 53.176,-4.52341 90.5736,-17.1383 142.563,-5.09808z" />
        </g>
        <path
   id="_156669144"
   class="fil0 str5"
   d="M1362.34 2627.92c38.2938,8.86944 45.6868,88.9346 -1.69628,102.97 -44.2622,13.112 -89.9509,7.35424 -137.473,7.35424 -74.677,0 -68.448,-99.6943 -3.39441,-105.227 53.176,-4.52341 90.5736,-17.1383 142.563,-5.09808z" />
       </g>
       <path
   id="_155224472"
   class="fil0 str5"
   d="M1362.34 2627.92c38.2938,8.86944 45.6868,88.9346 -1.69628,102.97 -44.2622,13.112 -89.9509,7.35424 -137.473,7.35424 -74.677,0 -68.448,-99.6943 -3.39441,-105.227 53.176,-4.52341 90.5736,-17.1383 142.563,-5.09808z" />
      </g>
      <path
   id="_155224552"
   class="fil0 str5"
   d="M1362.34 2627.92c38.2938,8.86944 45.6868,88.9346 -1.69628,102.97 -44.2622,13.112 -89.9509,7.35424 -137.473,7.35424 -74.677,0 -68.448,-99.6943 -3.39441,-105.227 53.176,-4.52341 90.5736,-17.1383 142.563,-5.09808z" />
     </g>
     <path
   class="fil0 str5"
   d="M1362.34 2627.92c38.2938,8.86944 45.6868,88.9346 -1.69628,102.97 -44.2622,13.112 -89.9509,7.35424 -137.473,7.35424 -74.677,0 -68.448,-99.6943 -3.39441,-105.227 53.176,-4.52341 90.5736,-17.1383 142.563,-5.09808z"
   id="path110" />
    </g>
    <path
   class="fil0 str5"
   d="M1362.34 2627.92c38.2938,8.86944 45.6868,88.9346 -1.69628,102.97 -44.2622,13.112 -89.9509,7.35424 -137.473,7.35424 -74.677,0 -68.448,-99.6943 -3.39441,-105.227 53.176,-4.52341 90.5736,-17.1383 142.563,-5.09808z"
   id="path112" />
   </g>
   <path
   class="fil4 str5"
   d="M1684.81 3315.29c47.5217,0 118.804,-10.1832 118.804,47.5217 0,37.3385 6.78881,156.143 -40.7329,57.7049 -13.5776,-27.1553 -81.4658,-88.2546 -78.0714,-105.227z"
   id="path114" />
   <g
   id="g116">
    <g
   id="g118">
     <g
   id="_156219144">
      <g
   id="g121">
       <g
   id="g123">
        <g
   id="g125">
         <g
   id="g127">
          <path
   id="_288849144"
   class="fil3 str5"
   d="M1212.98 2829.89c-34.7257,127.744 30.7788,146.421 149.354,88.2546 61.3266,-30.084 20.3664,-95.0434 0,-115.41 -20.3664,-20.3664 -144.33,8.67357 -149.354,27.1553z" />
          <path
   id="path130"
   class="fil0 str5"
   d="M1212.98 2829.89c-34.7257,127.744 30.7788,146.421 149.354,88.2546 61.3266,-30.084 20.3664,-95.0434 0,-115.41 -20.3664,-20.3664 -144.33,8.67357 -149.354,27.1553z" />
         </g>
         <path
   id="_155902368"
   class="fil0 str5"
   d="M1212.98 2829.89c-34.7257,127.744 30.7788,146.421 149.354,88.2546 61.3266,-30.084 20.3664,-95.0434 0,-115.41 -20.3664,-20.3664 -144.33,8.67357 -149.354,27.1553z" />
        </g>
        <path
   id="_155507520"
   class="fil0 str5"
   d="M1212.98 2829.89c-34.7257,127.744 30.7788,146.421 149.354,88.2546 61.3266,-30.084 20.3664,-95.0434 0,-115.41 -20.3664,-20.3664 -144.33,8.67357 -149.354,27.1553z" />
       </g>
       <path
   id="_153703056"
   class="fil0 str5"
   d="M1212.98 2829.89c-34.7257,127.744 30.7788,146.421 149.354,88.2546 61.3266,-30.084 20.3664,-95.0434 0,-115.41 -20.3664,-20.3664 -144.33,8.67357 -149.354,27.1553z" />
      </g>
      <path
   class="fil0 str5"
   d="M1212.98 2829.89c-34.7257,127.744 30.7788,146.421 149.354,88.2546 61.3266,-30.084 20.3664,-95.0434 0,-115.41 -20.3664,-20.3664 -144.33,8.67357 -149.354,27.1553z"
   id="path135" />
     </g>
     <path
   class="fil0 str5"
   d="M1212.98 2829.89c-34.7257,127.744 30.7788,146.421 149.354,88.2546 61.3266,-30.084 20.3664,-95.0434 0,-115.41 -20.3664,-20.3664 -144.33,8.67357 -149.354,27.1553z"
   id="path137" />
    </g>
    <path
   class="fil0 str5"
   d="M1212.98 2829.89c-34.7257,127.744 30.7788,146.421 149.354,88.2546 61.3266,-30.084 20.3664,-95.0434 0,-115.41 -20.3664,-20.3664 -144.33,8.67357 -149.354,27.1553z"
   id="path139" />
   </g>
   <path
   class="fil4 str5"
   d="M1243.53 3074.29c113.082,-100.615 168.105,-69.832 169.72,-61.0993 18.5186,100.134 38.5857,115.946 -98.4378,166.326 -69.5955,25.5883 -80.795,-96.7619 -71.2826,-105.227z"
   id="path141" />
   <path
   class="fil4 str5"
   d="M1467.56 3182.91c-52.9838,0 -127.664,38.4194 -145.424,86.793 -12.9586,35.3004 8.99509,89.0806 59.6211,96.505 29.5592,4.33494 102.239,-38.0942 122.315,-90.7306 12.0458,-31.5807 -0.872161,-73.474 -36.5125,-92.5674z"
   id="path143" />
   <path
   class="fil4 str5"
   d="M1571.85 3338.48c-78.1083,6.33056 -124.651,126.16 -9.24084,126.16 54.3105,0 61.7608,-130.418 9.24084,-126.16z"
   id="path145" />
   <path
   class="fil4 str5"
   d="M1708.57 3508.77c-42.1908,-82.5523 -80.9003,2.2654 -36.7731,46.3927 64.4937,64.4937 63.5976,6.09035 36.7731,-46.3927z"
   id="path147" />
   <path
   class="fil0 str0"
   d="M1296.84 3783.95c-24.2099,-33.0479 -15.3109,-97.5065 -28.7074,-153.345 -21.0575,-87.7686 -50.4098,-200.882 -189.791,-290.807 -237.865,-153.465 -406.837,-22.4101 -447.857,48.7135 -75.2461,130.468 103.146,375.074 321.223,399.733 85.3037,9.64551 292.71,-12.6297 313.535,28.0089"
   id="path149" />
   
   <path
   class="fil0 str6"
   d="M1428.36 2588.1c7.16761,197.168 11.2254,410.448 105.125,585.355 76.6763,142.824 218.218,272.578 248.477,375.105"
   id="path153" />
  <g
   style="fill-rule:evenodd"
   id="g2430"
   transform="matrix(0.959029,0.283307,-0.283307,0.959029,3796.198,2417.699)"><path
     id="path4237"
     d="M 3476.2625,1658.717 C 3477.7865,1658.717 3487.5824,1658.717 3493.1343,1658.717"
     style="fill:none;fill-rule:evenodd;stroke:none;stroke-width:1px;stroke-linecap:butt;stroke-linejoin:miter;stroke-opacity:1" /><path
     sodipodi:nodetypes="ccccccccccccscccccccccccc"
     id="path7067"
     d="M -2684.4612,1767.3113 C -2728.4695,1800.6414 -2748.1012,1846.0499 -2739.7793,1881.0966 C -2726.017,1926.4898 -2705.2075,1944.5314 -2678.1098,1961.9513 C -2647.6448,1984.1766 -2628.9255,1992.0821 -2601.0725,1988.2746 C -2569.1192,1991.1677 -2535.6165,2009.1051 -2524.3568,2040.6962 C -2494.2885,2089.2842 -2432.4562,2102.1347 -2379.1975,2100.9389 C -2327.1181,2101.3121 -2281.6189,2090.9141 -2236.7925,2062.2094 C -2209.9183,2040.7442 -2198.7042,2001.682 -2224.0227,1978.5237 C -2233.8249,1964.5576 -2271.1839,1918.445 -2226.7147,1917.5225 C -2198.2224,1920.7051 -2178.7772,1930.2467 -2153.9186,1937.0089 C -2131.9851,1932.2336 -2131.8148,1918.9772 -2131.4196,1887.9098 C -2134.4061,1869.273 -2149.7506,1842.9217 -2161.173,1871.138 C -2150.9397,1892.7057 -2158.8817,1903.0806 -2172.7534,1905.4945 C -2186.6252,1907.9088 -2206.4262,1902.3619 -2219.9114,1892.0863 C -2240.3039,1875.0551 -2271.5973,1847.7313 -2292.7032,1873.3062 C -2305.3754,1894.5303 -2298.4456,1955.627 -2334.4772,1950.4297 C -2372.8968,1946.604 -2383.5282,1904.6809 -2388.6445,1878.6697 C -2407.4018,1854.6285 -2409.6121,1898.1491 -2423.6868,1864.2653 C -2445.0493,1840.8375 -2435.3897,1796.9187 -2471.4059,1790.9265 C -2491.8899,1806.1895 -2478.0732,1835.6655 -2455.1596,1845.6798 C -2429.2793,1862.7875 -2421.9723,1908.2324 -2456.7453,1924.4176 C -2482.4375,1941.5645 -2506.0188,1912.3953 -2480.0364,1894.4994 C -2465.6383,1867.2536 -2482.4427,1833.829 -2507.3966,1819.5101 C -2531.9426,1800.21 -2546.3462,1765.4057 -2577.7844,1756.4981 C -2610.5951,1752.4346 -2650.3734,1746.9939 -2684.4612,1767.3113 z "
     style="fill:#ef9ba0;fill-opacity:1;fill-rule:evenodd;stroke:none;stroke-width:1.32947397px;stroke-linecap:butt;stroke-linejoin:miter;stroke-opacity:1" /><path
     style="fill:#ef9ba0;fill-rule:evenodd;stroke:none;stroke-width:1px;stroke-linecap:butt;stroke-linejoin:miter;stroke-opacity:1;fill-opacity:1"
     d="M 978.19598,3627.2023 C 985.80029,3615.3329 992.27075,3598.3134 992.27075,3574.4219 C 992.27075,3562.8781 996.30506,3540.6912 999.30813,3528.679 C 1003.0825,3513.5814 1002.8268,3496.5434 1002.8268,3479.4173 C 1002.8268,3461.1398 1003.3736,3442.8988 999.30813,3426.6369 C 998.02418,3421.5012 1014.9444,3433.2786 1020.4203,3444.2304 C 1026.4435,3456.2768 1019.2912,3483.9335 1016.9016,3493.492 C 1012.7506,3510.0959 1013.2526,3524.639 1016.9016,3539.235 C 1021.307,3556.8567 1010.8565,3575.9561 1006.3455,3584.978 C 1000.6711,3596.3268 998.8119,3618.6311 995.78944,3630.721 C 994.01775,3637.8077 973.05079,3614.3393 985.23336,3644.7957 C 994.78233,3668.6682 978.19598,3663.8824 978.19598,3627.2023 z "
     id="path2605"
     transform="matrix(0.959029,-0.283307,0.283307,0.959029,-4325.617,-1243.155)" /></g></g>
 </g>
</svg>