<?xml version="1.0" encoding="UTF-8" standalone="no"?>
<!-- Creator: CorelDRAW -->
<svg
   xmlns:dc="http://purl.org/dc/elements/1.1/"
   xmlns:cc="http://web.resource.org/cc/"
   xmlns:rdf="http://www.w3.org/1999/02/22-rdf-syntax-ns#"
   xmlns:svg="http://www.w3.org/2000/svg"
   xmlns="http://www.w3.org/2000/svg"
   xmlns:sodipodi="http://sodipodi.sourceforge.net/DTD/sodipodi-0.dtd"
   xmlns:inkscape="http://www.inkscape.org/namespaces/inkscape"
   xml:space="preserve"
   width="1965px"
   height="3391px"
   style="shape-rendering:geometricPrecision; text-rendering:geometricPrecision; image-rendering:optimizeQuality; fill-rule:evenodd; clip-rule:evenodd"
   viewBox="0 0 2132.3 3679.26"
   id="svg2"
   sodipodi:version="0.32"
   inkscape:version="0.44.1"
   sodipodi:docname="Month_9.svg"
   sodipodi:docbase="C:\temp\webdesign"><metadata
   id="metadata147"><rdf:RDF><cc:Work
       rdf:about=""><dc:format>image/svg+xml</dc:format><dc:type
         rdf:resource="http://purl.org/dc/dcmitype/StillImage" /></cc:Work></rdf:RDF></metadata><sodipodi:namedview
   inkscape:window-height="1174"
   inkscape:window-width="1600"
   inkscape:pageshadow="2"
   inkscape:pageopacity="0.0"
   guidetolerance="10.0"
   gridtolerance="10.0"
   objecttolerance="10.0"
   borderopacity="1.0"
   bordercolor="#666666"
   pagecolor="#ffffff"
   id="base"
   inkscape:zoom="0.11117664"
   inkscape:cx="982.5"
   inkscape:cy="1823.3748"
   inkscape:window-x="-4"
   inkscape:window-y="-4"
   inkscape:current-layer="_289558816" />
 <defs
   id="defs4">
  <style
   type="text/css"
   id="style6">
   
    .str5 {stroke:#EF9BA0;stroke-width:0.976519}
    .str0 {stroke:#007CC3;stroke-width:13.5623}
    .str1 {stroke:#DA251D;stroke-width:13.5623}
    .str4 {stroke:#DD137B;stroke-width:13.5623}
    .str3 {stroke:#EF9BA0;stroke-width:13.5623;stroke-opacity:0.501961}
    .str2 {stroke:#F5C491;stroke-width:27.126}
    .str6 {stroke:#EF9BA0;stroke-width:36.1671}
    .fil0 {fill:none}
    .fil5 {fill:#EF9BA0}
    .fil4 {fill:#F5C491}
    .fil2 {fill:#F5C491;fill-opacity:0.360784}
    .fil1 {fill:#957F66;fill-opacity:0.501961}
    .fil3 {fill:#F5C491;fill-opacity:0.690196}
   
  </style>
    <mask
   id="id0">
  <linearGradient
   id="id1"
   gradientUnits="userSpaceOnUse"
   x1="1557.62"
   y1="2255.89"
   x2="1538.92"
   y2="2017.49"
   spreadMethod="reflect">
   <stop
   offset="0"
   style="stop-opacity:1; stop-color:white"
   id="stop10" />
   <stop
   offset="1"
   style="stop-opacity:0; stop-color:white"
   id="stop12" />
  </linearGradient>
     <rect
   style="fill:url(#id1)"
   x="1418.44"
   y="1794.1"
   width="259.67"
   height="685.183"
   id="rect14" />
    </mask>
 
 <mask
   id="mask2414">
  <linearGradient
   spreadMethod="reflect"
   y2="2017.49"
   x2="1538.92"
   y1="2255.8899"
   x1="1557.62"
   gradientUnits="userSpaceOnUse"
   id="linearGradient2416">
   <stop
   id="stop2063"
   style="stop-opacity:1; stop-color:white"
   offset="0" />
   <stop
   id="stop2065"
   style="stop-opacity:0; stop-color:white"
   offset="1" />
  </linearGradient>
     <rect
   id="rect2067"
   height="685.18298"
   width="259.67001"
   y="1794.1"
   x="1418.4399"
   style="fill:url(#id1)" />
    </mask>
    <style
   id="style2059"
   type="text/css">
   
    .str5 {stroke:#EF9BA0;stroke-width:0.976519}
    .str0 {stroke:#007CC3;stroke-width:13.5623}
    .str1 {stroke:#DA251D;stroke-width:13.5623}
    .str4 {stroke:#DD137B;stroke-width:13.5623}
    .str3 {stroke:#EF9BA0;stroke-width:13.5623;stroke-opacity:0.501961}
    .str2 {stroke:#F5C491;stroke-width:27.126}
    .str6 {stroke:#EF9BA0;stroke-width:36.1671}
    .fil0 {fill:none}
    .fil5 {fill:#EF9BA0}
    .fil4 {fill:#F5C491}
    .fil2 {fill:#F5C491;fill-opacity:0.360784}
    .fil1 {fill:#957F66;fill-opacity:0.501961}
    .fil3 {fill:#F5C491;fill-opacity:0.690196}
   
  </style>
  </defs>
 <g
   id="Vrstva_x0020_1">
  <metadata
   id="CorelCorpID_0Corel-Layer" />
  <g
   id="_289558816">
   <path
   id="_155996592"
   class="fil0 str0"
   d="M1043.71 3044.68c13.2407,-42.3748 40.3064,-109 56.7945,-163.036 15.9857,-52.3886 -30.1709,-48.9913 -92.1055,-86.222 -42.7605,-25.7048 -127.678,-74.7409 -121.029,-92.0222 11.9335,-31.0231 113.739,33.9783 204.094,38.9301 84.8816,4.65064 159.009,-44.957 159.347,-20.3864 1.05341,76.4735 -119.936,95.2978 -127.059,132.922 -7.44308,39.3196 -54.275,156.506 -64.8693,191.818" />
   <path
   id="_156527128"
   class="fil0 str1"
   d="M1342.57 2738.19c-83.4834,-107.498 -207.785,-30.7437 -342.698,-55.2284 -329.06,-59.7189 -681.92,-325.319 -769.169,-507.22 -200.636,-418.296 36.4272,-757.51 326.565,-759.791 304.314,-2.39388 479.175,131.115 664.648,549.874 44.4342,100.321 151.531,412.706 158.865,514.218 5.57205,77.1258 5.26321,155.675 23.6095,197.266" />
   <path
   id="_156669992"
   class="fil0 str2"
   d="M1671.32 4.54299c11.7746,129.521 115.04,399.476 164.845,565.182 139.362,463.675 237.638,839.95 206.056,1171.57l-58.8731 618.167c-7.33799,77.0643 -2.04659,157.38 -2.77065,236.025 -0.639479,69.3918 -8.5721,137.165 3.09487,204.897 11.6362,67.5605 38.52,131.556 59.7458,189.076 21.8499,59.2101 24.3873,98.9988 44.4765,192.182 6.06416,28.1281 15.2796,63.1252 20.0597,99.7382 13.215,101.197 19.3792,212.539 -11.5529,204.119 -37.2179,-10.1291 -69.5725,-332.629 -76.1928,-326.442 4.17904,34.2794 39.3132,286.907 42.8784,370.48 2.07991,48.7811 -43.1488,50.7444 -53.4266,19.6944 -30.8488,-93.2038 -63.097,-354.658 -76.7157,-388.87 18.7422,91.8184 46.7153,357.538 47.9955,397.806 1.7057,53.6265 -46.0246,71.3115 -65.4563,-7.23675 -24.6462,-99.6255 -45.2031,-299.749 -68.7357,-370.752 29.6108,204.442 38.479,305.267 33.9449,365.617 -1.43146,19.0537 -28.9585,51.5018 -44.702,9.16416 -29.7902,-80.1117 -62.0218,-264.625 -77.0284,-367.85 -30.1106,128.612 -37.0629,205.255 -77.9408,192.173 -20.3685,-6.5191 -30.7693,-131.247 -12.6179,-234.999 3.46267,-19.7995 -21.1541,14.3505 -37.8971,39.7874 -19.6854,29.9081 -37.5473,77.4526 -42.3543,124.269 -13.2907,129.439 24.2951,292.447 24.2951,361.622" />
   <path
   id="_155258768"
   class="fil0 str2"
   d="M1153.23 428.429c95.3003,90.8842 112.01,115.051 167.592,226.663 74.8203,150.243 103.385,298.366 226.857,468.04 120.496,165.584 132.009,120.792 141.295,494.534l23.5492 947.857c2.78218,111.977 -20.5492,254.402 -35.3238,341.464l-47.0985 277.506" />
   <path
   id="_157102944"
   class="fil0 str2"
   d="M1622.32 1223.14l-29.5288 245.932c-10.0241,83.4962 -0.376767,168.08 -0.565151,248.656 -0.316536,134.701 53.6586,244.289 107.775,348.696" />
   <path
   id="_155045120"
   class="fil0"
   style="mask:url(#id0)"
   d="M1418.47 1794.13c7.33543,130.843 2.86676,240.814 54.9644,371.343 58.2016,145.822 157.558,199.685 204.641,313.777" />
   <path
   id="_153651912"
   class="fil0 str2"
   d="M778.384 3676.45c-47.1036,-219.817 -58.8551,-281.84 -70.6554,-416.082 -9.81133,-111.623 -10.866,-230.211 -7.44564,-342.639 5.41058,-177.78 -128.498,-251.223 -311.153,-397.817 -147.429,-118.323 -412.417,-415.9 -371.416,-669.979 39.6285,-245.582 167.578,-375.224 293.635,-550.225 112.173,-155.724 172.955,-185.853 275.487,-321.488 -21.8794,-21.0029 -26.6672,-25.9957 -45.849,-45.8259 -37.3986,-38.6622 -88.3019,-136.843 -107.523,-187.169 59.1166,-121.598 224.064,-275.818 310.023,-385.607 95.2234,-121.623 183.912,-218.82 223.798,-355.862" />
   <path
   id="_155619040"
   class="fil1 str3"
   d="M1506.04 2463.05c-69.6853,-1.47119 44.7071,198.604 -5.4093,247.782 -53.5074,52.5052 -49.1527,107.686 -60.8261,117.271 -17.6555,14.494 -92.481,46.8806 -101.576,85.8619 -45.8618,196.557 227.787,16.9725 260.547,-50.046 43.9511,-89.9064 74.1052,-404.306 -92.736,-400.869z" />
   <path
   id="_155075448"
   class="fil0 str2"
   d="M1697.81 2784.82c-67.704,208.999 -339.803,371.601 -538.686,378.259 -89.7706,3.00517 -191.891,-46.5077 -257.732,-97.4687 -57.8927,-44.8071 -124.602,-53.6906 -201.478,-168.625" />
   <path
   id="_155150432"
   class="fil0 str4"
   d="M1319.14 2645.34c19.4138,34.1384 62.387,61.2029 21.1874,96.5203 -27.8039,23.8337 -99.4371,132.295 -120.503,169.058 -29.8172,52.0349 -53.7303,103.152 -75.5841,163.535" />
   <path
   id="_155724072"
   class="fil0 str4"
   d="M1340.33 2621.8c14.7413,24.4489 30.8244,85.0302 44.2266,73.3479l24.049 -20.9631c11.7759,-10.265 21.9461,10.2547 12.9267,27.668 -15.0348,29.0252 -60.3878,68.2602 -71.7857,80.0297 -32.425,33.4785 -92.4015,128.009 -112.999,169.499 -17.5466,35.3469 -44.7789,97.9697 -58.3297,144.206" />
   <path
   id="_155507744"
   class="fil0 str2"
   d="M856.541 3036.63c98.1325,0 194.935,-3.35887 277.365,32.5212 48.7644,21.2271 89.9718,70.062 136.294,76.3428" />
   <g
   id="g31">
    <g
   id="g33">
     <g
   id="g35">
      <g
   id="g37">
       <g
   id="g39">
        <g
   id="g41">
         <g
   id="g43">
          <path
   id="_155360232"
   class="fil2 str5"
   d="M1472.16 1809.62c63.5622,0 148.312,-9.41662 110.645,65.9163 -4.70831,11.7708 -75.3329,4.70831 -91.812,4.70831 -18.8332,0 -28.2499,-63.5622 -18.8332,-70.6246z" />
          <path
   id="path46"
   class="fil0 str5"
   d="M1472.16 1809.62c63.5622,0 148.312,-9.41662 110.645,65.9163 -4.70831,11.7708 -75.3329,4.70831 -91.812,4.70831 -18.8332,0 -28.2499,-63.5622 -18.8332,-70.6246z" />
         </g>
         <path
   id="_153728784"
   class="fil0 str5"
   d="M1472.16 1809.62c63.5622,0 148.312,-9.41662 110.645,65.9163 -4.70831,11.7708 -75.3329,4.70831 -91.812,4.70831 -18.8332,0 -28.2499,-63.5622 -18.8332,-70.6246z" />
        </g>
        <path
   id="_156665472"
   class="fil0 str5"
   d="M1472.16 1809.62c63.5622,0 148.312,-9.41662 110.645,65.9163 -4.70831,11.7708 -75.3329,4.70831 -91.812,4.70831 -18.8332,0 -28.2499,-63.5622 -18.8332,-70.6246z" />
       </g>
       <path
   id="_156994488"
   class="fil0 str5"
   d="M1472.16 1809.62c63.5622,0 148.312,-9.41662 110.645,65.9163 -4.70831,11.7708 -75.3329,4.70831 -91.812,4.70831 -18.8332,0 -28.2499,-63.5622 -18.8332,-70.6246z" />
      </g>
      <path
   id="_155036720"
   class="fil0 str5"
   d="M1472.16 1809.62c63.5622,0 148.312,-9.41662 110.645,65.9163 -4.70831,11.7708 -75.3329,4.70831 -91.812,4.70831 -18.8332,0 -28.2499,-63.5622 -18.8332,-70.6246z" />
     </g>
     <path
   id="_156909536"
   class="fil0 str5"
   d="M1472.16 1809.62c63.5622,0 148.312,-9.41662 110.645,65.9163 -4.70831,11.7708 -75.3329,4.70831 -91.812,4.70831 -18.8332,0 -28.2499,-63.5622 -18.8332,-70.6246z" />
    </g>
    <path
   id="_154083184"
   class="fil0 str5"
   d="M1472.16 1809.62c63.5622,0 148.312,-9.41662 110.645,65.9163 -4.70831,11.7708 -75.3329,4.70831 -91.812,4.70831 -18.8332,0 -28.2499,-63.5622 -18.8332,-70.6246z" />
   </g>
   <g
   id="_153725008">
    <g
   id="g55">
     <g
   id="g57">
      <g
   id="g59">
       <g
   id="g61">
        <g
   id="g63">
         <g
   id="g65">
          <path
   id="_155064552"
   class="fil3 str5"
   d="M1486.29 1923.21c69.0983,-4.46098 147.497,-18.7679 110.645,62.9714 -5.2081,11.5516 -75.3329,4.70831 -91.812,4.70831 -18.8332,0 -30.5758,-66.921 -18.8332,-67.6797z" />
          <path
   id="path68"
   class="fil0 str5"
   d="M1486.29 1923.21c69.0983,-4.46098 147.497,-18.7679 110.645,62.9714 -5.2081,11.5516 -75.3329,4.70831 -91.812,4.70831 -18.8332,0 -30.5758,-66.921 -18.8332,-67.6797z" />
         </g>
         <path
   id="_288857672"
   class="fil0 str5"
   d="M1486.29 1923.21c69.0983,-4.46098 147.497,-18.7679 110.645,62.9714 -5.2081,11.5516 -75.3329,4.70831 -91.812,4.70831 -18.8332,0 -30.5758,-66.921 -18.8332,-67.6797z" />
        </g>
        <path
   id="_156309512"
   class="fil0 str5"
   d="M1486.29 1923.21c69.0983,-4.46098 147.497,-18.7679 110.645,62.9714 -5.2081,11.5516 -75.3329,4.70831 -91.812,4.70831 -18.8332,0 -30.5758,-66.921 -18.8332,-67.6797z" />
       </g>
       <path
   id="_153727856"
   class="fil0 str5"
   d="M1486.29 1923.21c69.0983,-4.46098 147.497,-18.7679 110.645,62.9714 -5.2081,11.5516 -75.3329,4.70831 -91.812,4.70831 -18.8332,0 -30.5758,-66.921 -18.8332,-67.6797z" />
      </g>
      <path
   id="_157384192"
   class="fil0 str5"
   d="M1486.29 1923.21c69.0983,-4.46098 147.497,-18.7679 110.645,62.9714 -5.2081,11.5516 -75.3329,4.70831 -91.812,4.70831 -18.8332,0 -30.5758,-66.921 -18.8332,-67.6797z" />
     </g>
     <path
   id="_157432744"
   class="fil0 str5"
   d="M1486.29 1923.21c69.0983,-4.46098 147.497,-18.7679 110.645,62.9714 -5.2081,11.5516 -75.3329,4.70831 -91.812,4.70831 -18.8332,0 -30.5758,-66.921 -18.8332,-67.6797z" />
    </g>
    <path
   class="fil0 str5"
   d="M1486.29 1923.21c69.0983,-4.46098 147.497,-18.7679 110.645,62.9714 -5.2081,11.5516 -75.3329,4.70831 -91.812,4.70831 -18.8332,0 -30.5758,-66.921 -18.8332,-67.6797z"
   id="path75" />
   </g>
   <path
   class="fil4 str5"
   d="M1504.34 2051.71c36.7361,-8.04283 110.293,-6.12952 122.683,2.14398 13.1471,8.7797 9.25899,33.2337 -4.18929,61.8103 -5.39649,11.4696 -75.3329,4.70831 -91.812,4.70831 -18.8332,0 -38.1791,-66.1457 -26.6813,-68.6626z"
   id="path77" />
   <path
   class="fil4 str5"
   d="M1561.62 2188.64c63.5596,0.2358 111.021,-15.7012 96.528,65.9163 -2.21575,12.4807 -61.2157,4.70831 -77.6948,4.70831 -18.8332,0 -30.5489,-70.6669 -18.8332,-70.6246z"
   id="path79" />
   <g
   id="g81">
    <g
   id="_156383184">
     <g
   id="g84">
      <g
   id="g86">
       <g
   id="g88">
        <g
   id="g90">
         <g
   id="g92">
          <path
   id="_156303432"
   class="fil2 str5"
   d="M1387.41 1822.56c26.5582,6.1513 31.6856,61.6796 -1.17644,71.414 -30.6976,9.09367 -62.3845,5.10045 -95.3426,5.10045 -51.7914,0 -47.4714,-69.1419 -2.35415,-72.9788 36.8796,-3.13716 62.8163,-11.8861 98.8732,-3.53572z" />
          <path
   id="path95"
   class="fil0 str5"
   d="M1387.41 1822.56c26.5582,6.1513 31.6856,61.6796 -1.17644,71.414 -30.6976,9.09367 -62.3845,5.10045 -95.3426,5.10045 -51.7914,0 -47.4714,-69.1419 -2.35415,-72.9788 36.8796,-3.13716 62.8163,-11.8861 98.8732,-3.53572z" />
         </g>
         <path
   id="_156179968"
   class="fil0 str5"
   d="M1387.41 1822.56c26.5582,6.1513 31.6856,61.6796 -1.17644,71.414 -30.6976,9.09367 -62.3845,5.10045 -95.3426,5.10045 -51.7914,0 -47.4714,-69.1419 -2.35415,-72.9788 36.8796,-3.13716 62.8163,-11.8861 98.8732,-3.53572z" />
        </g>
        <path
   id="_155473936"
   class="fil0 str5"
   d="M1387.41 1822.56c26.5582,6.1513 31.6856,61.6796 -1.17644,71.414 -30.6976,9.09367 -62.3845,5.10045 -95.3426,5.10045 -51.7914,0 -47.4714,-69.1419 -2.35415,-72.9788 36.8796,-3.13716 62.8163,-11.8861 98.8732,-3.53572z" />
       </g>
       <path
   id="_155907912"
   class="fil0 str5"
   d="M1387.41 1822.56c26.5582,6.1513 31.6856,61.6796 -1.17644,71.414 -30.6976,9.09367 -62.3845,5.10045 -95.3426,5.10045 -51.7914,0 -47.4714,-69.1419 -2.35415,-72.9788 36.8796,-3.13716 62.8163,-11.8861 98.8732,-3.53572z" />
      </g>
      <path
   id="_154466672"
   class="fil0 str5"
   d="M1387.41 1822.56c26.5582,6.1513 31.6856,61.6796 -1.17644,71.414 -30.6976,9.09367 -62.3845,5.10045 -95.3426,5.10045 -51.7914,0 -47.4714,-69.1419 -2.35415,-72.9788 36.8796,-3.13716 62.8163,-11.8861 98.8732,-3.53572z" />
     </g>
     <path
   class="fil0 str5"
   d="M1387.41 1822.56c26.5582,6.1513 31.6856,61.6796 -1.17644,71.414 -30.6976,9.09367 -62.3845,5.10045 -95.3426,5.10045 -51.7914,0 -47.4714,-69.1419 -2.35415,-72.9788 36.8796,-3.13716 62.8163,-11.8861 98.8732,-3.53572z"
   id="path101" />
    </g>
    <path
   class="fil0 str5"
   d="M1387.41 1822.56c26.5582,6.1513 31.6856,61.6796 -1.17644,71.414 -30.6976,9.09367 -62.3845,5.10045 -95.3426,5.10045 -51.7914,0 -47.4714,-69.1419 -2.35415,-72.9788 36.8796,-3.13716 62.8163,-11.8861 98.8732,-3.53572z"
   id="path103" />
   </g>
   <path
   class="fil4 str5"
   d="M1611.06 2299.28c32.9582,0 82.3954,-7.06246 82.3954,32.9582 0,25.8957 4.70831,108.291 -28.2499,40.0206 -9.41662,-18.8332 -56.4997,-61.208 -54.1456,-72.9788z"
   id="path105" />
   <g
   id="g107">
    <g
   id="g109">
     <g
   id="_155957736">
      <g
   id="g112">
       <g
   id="g114">
        <g
   id="g116">
         <g
   id="g118">
          <path
   id="_155226664"
   class="fil3 str5"
   d="M1283.83 1962.64c-24.0836,88.5954 21.3463,101.549 103.583,61.208 42.5324,-20.8644 14.1249,-65.9163 0,-80.0412 -14.1249,-14.1249 -100.098,6.01546 -103.583,18.8332z" />
          <path
   id="path121"
   class="fil0 str5"
   d="M1283.83 1962.64c-24.0836,88.5954 21.3463,101.549 103.583,61.208 42.5324,-20.8644 14.1249,-65.9163 0,-80.0412 -14.1249,-14.1249 -100.098,6.01546 -103.583,18.8332z" />
         </g>
         <path
   id="_155821456"
   class="fil0 str5"
   d="M1283.83 1962.64c-24.0836,88.5954 21.3463,101.549 103.583,61.208 42.5324,-20.8644 14.1249,-65.9163 0,-80.0412 -14.1249,-14.1249 -100.098,6.01546 -103.583,18.8332z" />
        </g>
        <path
   id="_155984472"
   class="fil0 str5"
   d="M1283.83 1962.64c-24.0836,88.5954 21.3463,101.549 103.583,61.208 42.5324,-20.8644 14.1249,-65.9163 0,-80.0412 -14.1249,-14.1249 -100.098,6.01546 -103.583,18.8332z" />
       </g>
       <path
   id="_155533192"
   class="fil0 str5"
   d="M1283.83 1962.64c-24.0836,88.5954 21.3463,101.549 103.583,61.208 42.5324,-20.8644 14.1249,-65.9163 0,-80.0412 -14.1249,-14.1249 -100.098,6.01546 -103.583,18.8332z" />
      </g>
      <path
   class="fil0 str5"
   d="M1283.83 1962.64c-24.0836,88.5954 21.3463,101.549 103.583,61.208 42.5324,-20.8644 14.1249,-65.9163 0,-80.0412 -14.1249,-14.1249 -100.098,6.01546 -103.583,18.8332z"
   id="path126" />
     </g>
     <path
   class="fil0 str5"
   d="M1283.83 1962.64c-24.0836,88.5954 21.3463,101.549 103.583,61.208 42.5324,-20.8644 14.1249,-65.9163 0,-80.0412 -14.1249,-14.1249 -100.098,6.01546 -103.583,18.8332z"
   id="path128" />
    </g>
    <path
   class="fil0 str5"
   d="M1283.83 1962.64c-24.0836,88.5954 21.3463,101.549 103.583,61.208 42.5324,-20.8644 14.1249,-65.9163 0,-80.0412 -14.1249,-14.1249 -100.098,6.01546 -103.583,18.8332z"
   id="path130" />
   </g>
   <path
   class="fil4 str5"
   d="M1305.02 2132.14c78.4265,-69.7801 116.588,-48.4312 117.708,-42.3748 12.8434,69.4469 26.7607,80.4129 -68.2705,115.354 -48.2672,17.7465 -56.0345,-67.1081 -49.4372,-72.9788z"
   id="path132" />
   <path
   class="fil4 str5"
   d="M1460.39 2207.47c-36.7463,0 -88.5403,26.6454 -100.857,60.1943 -8.98731,24.4822 6.23845,61.7809 41.3496,66.93 20.5005,3.00645 70.9066,-26.4198 84.8303,-62.9253 8.35424,-21.9025 -0.604878,-50.9571 -25.3229,-64.1991z"
   id="path134" />
   <path
   class="fil4 str5"
   d="M1532.72 2315.37c-54.1712,4.39049 -86.4501,87.4971 -6.40889,87.4971 37.6665,0 42.8336,-90.4498 6.40889,-87.4971z"
   id="path136" />
   <path
   class="fil4 str5"
   d="M1627.54 2433.47c-29.261,-57.2532 -56.1076,1.57114 -25.5036,32.1752 44.7289,44.7289 44.1074,4.22389 25.5036,-32.1752z"
   id="path138" />
   
   
   <path
   class="fil0 str6"
   d="M1433.21 1794.95c4.97102,136.743 7.78524,284.662 72.9083,405.967 53.178,99.0539 151.343,189.044 172.329,260.15"
   id="path144" />
  <g
   style="fill-rule:evenodd"
   id="g2421"
   transform="translate(2692.706,-615.8919)"><g
     transform="matrix(0.941354,0,0,0.951513,-5187.027,466.0446)"
     id="g3280"
     style="fill-rule:evenodd;stroke:none"><g
       style="stroke:none"
       id="g3282"
       transform="translate(-224.4916,536.8277)"><g
         style="stroke:none"
         transform="translate(19.52134,507.5461)"
         id="g3284"><g
           id="g3286"
           transform="matrix(0.993133,0.116991,-0.116991,0.993133,299.0549,-736.6843)"
           style="fill:#ef9ba0;fill-opacity:1;fill-rule:evenodd;stroke:none;stroke-width:3.27929282;stroke-miterlimit:4;stroke-dasharray:none;stroke-opacity:1"><path
             id="path3288"
             d="M 3445.4575,1073.4305 C 3459.0031,1056.1704 3548.3217,1099.2395 3580.8414,1115.4994 C 3623.4026,1136.78 3626.9896,1158.1308 3658.9885,1190.1297 C 3684.5889,1215.7301 3705.7262,1262.1107 3718.7516,1288.1616 C 3738.4108,1327.48 3738.82,1373.8167 3728.5121,1415.0481 C 3725.6704,1426.415 3654.764,1455.1787 3640.6676,1483.3717 C 3619.8217,1525.0635 3605.0985,1537.8035 3591.8651,1590.7372 C 3589.4053,1600.5761 3499.5878,1544.5986 3494.26,1541.9347 C 3466.4687,1528.039 3434.5794,1492.0145 3416.176,1473.6112 C 3389.9197,1447.3548 3355.5423,1428.6535 3328.3315,1415.0481 C 3288.9128,1395.3388 3288.4043,1343.1841 3279.529,1307.6826"
             style="fill:#ef9ba0;fill-opacity:1;fill-rule:evenodd;stroke:none;stroke-width:3.27929282;stroke-linecap:butt;stroke-linejoin:miter;stroke-miterlimit:4;stroke-dasharray:none;stroke-opacity:1"
             sodipodi:nodetypes="csssssssssc" /><path
             id="path3290"
             d="M 3230.7265,1366.2456 C 3190.2992,1346.032 3307.4252,1414.3555 3347.8525,1434.5691 C 3380.6407,1450.9633 3412.3064,1479.502 3435.697,1502.8927 C 3465.5181,1532.7137 3488.6453,1546.0805 3513.781,1571.2162 C 3549.6042,1607.0394 3576.144,1576.6553 3591.8651,1639.5397 C 3604.4251,1689.7798 3584.6113,1741.8917 3572.3441,1766.4262 C 3557.6919,1795.7306 3559.4752,1821.0101 3552.8231,1854.2708"
             style="fill:#ef9ba0;fill-opacity:1;fill-rule:evenodd;stroke:none;stroke-width:3.27929282;stroke-linecap:butt;stroke-linejoin:miter;stroke-miterlimit:4;stroke-dasharray:none;stroke-opacity:1" /><path
             sodipodi:nodetypes="csssssssssssssc"
             id="path3292"
             d="M 3656.1662,2062.8094 C 3650.8964,2073.3491 3808.7459,2140.3029 3835.8776,2147.0858 C 3894.5925,2161.7646 3926.5461,2135.9134 3962.7642,2117.8043 C 4001.6109,2098.381 4049.5848,2060.2653 4070.1297,2039.7203 C 4110.2367,1999.6133 4111.9002,1985.4608 4138.4532,1932.3548 C 4156.1566,1896.9481 4157.9742,1858.7167 4157.9742,1805.4682 C 4157.9742,1743.4274 4142.4175,1723.7203 4128.6927,1668.8212 C 4121.1849,1638.7898 4073.8327,1607.9037 4060.3692,1580.9767 C 4046.3979,1553.0342 3995.8047,1530.6738 3962.7642,1522.4137 C 3907.897,1508.6969 3823.6562,1475.1488 3783.302,1515.5029 C 3749.3692,1549.4357 3802.8622,1604.2316 3777.3146,1629.7792 C 3762.7286,1644.3652 3777.3146,1752.9949 3777.3146,1776.1867 C 3777.3146,1826.4413 3769.2754,1857.1461 3757.7936,1903.0733 C 3746.1534,1949.634 3740.5007,2001.5264 3728.5121,2049.4808 C 3724.2627,2066.4783 3662.6732,2046.5419 3656.1662,2062.8094 z "
             style="fill:#ef9ba0;fill-opacity:1;fill-rule:evenodd;stroke:none;stroke-width:3.27929282;stroke-linecap:butt;stroke-linejoin:miter;stroke-miterlimit:4;stroke-dasharray:none;stroke-opacity:1" /><path
             id="path3294"
             d="M 3591.8651,1268.6406 C 3580.2143,1315.2437 3557.5091,1175.7216 3523.5415,1141.7541 C 3500.5212,1118.7337 3448.981,1106.2355 3425.9365,1083.191 C 3405.1999,1062.4544 3354.4918,1047.4687 3328.3315,1034.3885 C 3283.7701,1012.1078 3251.3411,1019.201 3220.966,1034.3885 C 3179.9539,1054.8945 3110.7534,1087.6781 3090.0686,1115.2578 C 3066.2772,1146.9797 3048.1337,1173.3128 3030.9056,1207.7691 C 3012.9636,1243.653 3000.9926,1283.7188 2977.5544,1330.5953 C 2960.2258,1365.2525 2978.6913,1426.3805 2978.6913,1471.1231 C 2978.6913,1531.9544 2986.0494,1563.9233 3007.9728,1607.7701 C 3035.3211,1662.4668 3055.8473,1698.9126 3094.0794,1737.1447 C 3123.9005,1766.9658 3127.5067,1799.8535 3152.6424,1824.9893 C 3182.4635,1854.8103 3195.8302,1877.9376 3220.966,1903.0733 C 3253.2031,1935.3104 3246.5664,1909.9899 3278.8036,1942.2271 C 3304.404,1967.8275 3328.4997,1973.6966 3354.5506,1986.722 C 3391.717,2005.3052 3446.9989,2032.7313 3480.3624,2049.413 C 3514.3771,2066.4203 3584.9582,2088.5228 3630.9071,2088.5228 C 3704.1844,2088.5228 3706.7952,2081.6902 3738.2726,2039.7203 C 3759.033,2012.0398 3751.2782,1938.8953 3757.7936,1912.8338 C 3771.2136,1859.1537 3775.9078,1830.6166 3787.0751,1785.9472 C 3797.7157,1743.385 3787.0751,1683.6714 3787.0751,1639.5397 C 3787.0751,1594.8192 3822.7645,1574.5688 3845.6381,1551.6952 C 3871.1548,1526.1785 3912.4067,1512.6532 3962.7642,1512.6532 C 4004.4599,1512.6532 3918.8032,1436.9899 3913.9617,1434.5691 C 3864.9162,1410.0464 3887.2428,1385.7666 3806.5961,1385.7666 C 3771.3403,1385.7666 3744.0986,1342.7901 3728.5121,1327.2036"
             style="fill:#ef9ba0;fill-opacity:1;fill-rule:evenodd;stroke:none;stroke-width:3.27929282;stroke-linecap:butt;stroke-linejoin:miter;stroke-miterlimit:4;stroke-dasharray:none;stroke-opacity:1"
             sodipodi:nodetypes="cssssssssssssssssssssssssc" /></g><g
           id="g3296"
           transform="matrix(0.993133,0.116991,-0.116991,0.993133,299.0549,-736.6843)"
           style="stroke:none;stroke-width:3.27929282;stroke-miterlimit:4;stroke-dasharray:none;stroke-opacity:1"><path
             style="fill:none;fill-rule:evenodd;stroke:none;stroke-width:3.27929282;stroke-linecap:butt;stroke-linejoin:miter;stroke-miterlimit:4;stroke-dasharray:none;stroke-opacity:1"
             d="M 3445.4575,1073.4305 C 3565.9496,1112.5647 3690.3166,1190.2945 3728.8571,1318.0401 C 3751.8969,1369.2941 3711.5836,1417.6806 3680.9787,1455.5864 C 3645.9183,1496.935 3603.4932,1531.6984 3571.1838,1575.4192 C 3479.1576,1567.8084 3437.9255,1469.3398 3359.6546,1433.9106 C 3316.9668,1406.405 3273.483,1362.9572 3279.529,1307.6826"
             id="path3298" /><path
             style="fill:none;fill-rule:evenodd;stroke:none;stroke-width:3.27929282;stroke-linecap:butt;stroke-linejoin:miter;stroke-miterlimit:4;stroke-dasharray:none;stroke-opacity:1"
             d="M 3230.7266,1366.2456 C 3333.006,1419.0989 3425.2229,1489.2114 3511.9267,1564.468 C 3575.7992,1585.3391 3604.6037,1658.1091 3590.1771,1720.3412 C 3586.6728,1767.9172 3552.6917,1806.6458 3552.823,1854.2708"
             id="path3300" /><path
             style="fill:none;fill-rule:evenodd;stroke:none;stroke-width:3.27929282;stroke-linecap:butt;stroke-linejoin:miter;stroke-miterlimit:4;stroke-dasharray:none;stroke-opacity:1"
             d="M 3708.9912,2098.2832 C 3805.2011,2172.3795 3951.7713,2156.594 4036.2323,2071.7271 C 4166.5934,1971.4963 4201.1363,1765.9357 4103.5566,1631.7914 C 4065.5032,1562.2646 3980.0977,1499.0373 3898.5491,1531.17 C 3851.6326,1560.6454 3795.813,1590.947 3780.5831,1649.3113 C 3762.2461,1702.7296 3773.3083,1759.7807 3774.6307,1814.1519 C 3758.547,1909.9916 3742.0694,2006.5939 3708.9912,2098.2832 z "
             id="path3302" /><path
             style="fill:none;fill-rule:evenodd;stroke:none;stroke-width:3.27929282;stroke-linecap:butt;stroke-linejoin:miter;stroke-miterlimit:4;stroke-dasharray:none;stroke-opacity:1"
             d="M 3591.865,1268.6406 C 3550.1262,1187.9507 3501.3699,1092.5063 3404.3239,1070.9676 C 3337.6031,1013.5151 3220.4209,1004.5356 3163.7273,1080.7354 C 3079.6885,1177.8469 3020.6701,1299.1989 3003.0459,1426.6445 C 2993.9349,1609.0486 3099.9297,1772.2613 3218.777,1901.1685 C 3322.8456,2025.2214 3485.1424,2110.6647 3649.8588,2089.4457 C 3718.6058,2083.5031 3757.8856,2013.3625 3760.9058,1950.0692 C 3769.3052,1888.1144 3764.3025,1823.1711 3788.9475,1764.4047 C 3769.9392,1675.3792 3794.8581,1561.8679 3886.7278,1523.566 C 3938.0013,1525.1994 3972.4361,1467.6592 3922.3026,1436.225 C 3882.383,1403.3619 3832.0598,1386.9941 3782.5674,1375.7848 C 3759.8318,1366.2926 3739.534,1349.5289 3728.5121,1327.2036"
             id="path3304" /></g></g><path
         id="path3306"
         d="M 3923.7221,2256.61 C 3930.7083,2315.2784 3905.7382,2319.669 3845.6381,2334.694 C 3793.2491,2347.7913 3786.4121,2288.5436 3796.8356,2246.8495 C 3804.012,2218.1439 3817.3184,2236.6081 3835.8776,2227.3285"
         style="fill:none;fill-rule:evenodd;stroke:none;stroke-width:3.27929282;stroke-linecap:butt;stroke-linejoin:miter;stroke-miterlimit:4;stroke-dasharray:none;stroke-opacity:1" /><path
         id="path3308"
         d="M 3874.9196,2285.8915 C 3879.169,2268.894 3842.3846,2272.8775 3826.1171,2266.3705"
         style="fill:none;fill-rule:evenodd;stroke:none;stroke-width:3.27929282;stroke-linecap:butt;stroke-linejoin:miter;stroke-miterlimit:4;stroke-dasharray:none;stroke-opacity:1" /><path
         id="path3310"
         d="M 3913.9616,1912.8338 C 3949.6105,1944.708 3942.2863,1983.0709 3923.7221,2020.1993"
         style="fill:none;fill-rule:evenodd;stroke:none;stroke-width:3.27929282;stroke-linecap:butt;stroke-linejoin:miter;stroke-miterlimit:4;stroke-dasharray:none;stroke-opacity:1" /></g><path
       style="fill:none;fill-rule:evenodd;stroke:none;stroke-width:3.27929282;stroke-linecap:butt;stroke-linejoin:miter;stroke-miterlimit:4;stroke-dasharray:none;stroke-opacity:1"
       d="M 3455.218,2439.9009 C 3474.4636,2414.931 3475.2605,2382.052 3484.0581,2352.9106 C 3490.1455,2323.4235 3496.7724,2293.7233 3509.8655,2266.4463 C 3515.1598,2249.5205 3520.3881,2231.275 3534.4922,2219.3851 C 3551.8576,2199.9409 3572.2264,2182.9694 3595.5407,2171.1846 C 3615.1563,2156.4832 3633.8548,2137.5513 3659.4365,2134.5206 C 3676.0708,2131.1329 3693.1148,2130.3446 3709.7312,2126.8529 C 3717.9747,2126.806 3725.5335,2130.5272 3733.3923,2132.4451"
       id="path3312" /></g><path
     id="path4237"
     d="M 3476.2625,1658.717 C 3477.7865,1658.717 3487.5824,1658.717 3493.1343,1658.717"
     style="fill:none;fill-rule:evenodd;stroke:none;stroke-width:1px;stroke-linecap:butt;stroke-linejoin:miter;stroke-opacity:1" /></g><path
   class="fil0 str1"
   d="M1341.99 2624.31c-16.7905,-22.92 -1.83258,-87.4177 -2.25548,-127.226 -2.4413,-229.655 -136.373,-422.329 -216.309,-586.785 -180.928,-372.231 -346.912,-399.941 -507.021,-424.195 -333.507,-50.5201 -486.6,370.002 -342.752,625.132 112.589,199.687 492.248,487.037 803.084,513.07 59.3178,4.96718 228.896,-5.7771 243.339,22.4074"
   id="path140" /></g>
 </g>
</svg>