<?xml version="1.0" encoding="UTF-8" standalone="no"?>
<!-- Created with Inkscape (http://www.inkscape.org/) -->

<svg
   xmlns:dc="http://purl.org/dc/elements/1.1/"
   xmlns:cc="http://creativecommons.org/ns#"
   xmlns:rdf="http://www.w3.org/1999/02/22-rdf-syntax-ns#"
   xmlns:svg="http://www.w3.org/2000/svg"
   xmlns="http://www.w3.org/2000/svg"
   xmlns:sodipodi="http://sodipodi.sourceforge.net/DTD/sodipodi-0.dtd"
   xmlns:inkscape="http://www.inkscape.org/namespaces/inkscape"
   width="537.5"
   height="212.5"
   id="svg2"
   version="1.1"
   inkscape:version="0.48.0 r9654"
   sodipodi:docname="zte-logo.svg"
   inkscape:export-filename="C:\Documents and Settings\吴晓春\桌面\zte-logo.png"
   inkscape:export-xdpi="10.76"
   inkscape:export-ydpi="10.76">
  <title
     id="title2816">zte-logo</title>
  <defs
     id="defs4">
    <inkscape:perspective
       sodipodi:type="inkscape:persp3d"
       inkscape:vp_x="0 : 526.18109 : 1"
       inkscape:vp_y="0 : 1000 : 0"
       inkscape:vp_z="744.09448 : 526.18109 : 1"
       inkscape:persp3d-origin="372.04724 : 350.78739 : 1"
       id="perspective10" />
  </defs>
  <sodipodi:namedview
     id="base"
     pagecolor="#ffffff"
     bordercolor="#666666"
     borderopacity="1.0"
     inkscape:pageopacity="0.0"
     inkscape:pageshadow="2"
     inkscape:zoom="0.72555162"
     inkscape:cx="184.83303"
     inkscape:cy="183.25684"
     inkscape:document-units="px"
     inkscape:current-layer="layer1"
     showgrid="false"
     inkscape:window-width="1024"
     inkscape:window-height="712"
     inkscape:window-x="-4"
     inkscape:window-y="-4"
     inkscape:window-maximized="1"
     showguides="false"
     inkscape:guide-bbox="true"
     inkscape:snap-grids="false"
     inkscape:snap-to-guides="true"
     inkscape:snap-global="false"
     units="pt">
    <inkscape:grid
       type="xygrid"
       id="grid3610"
       empspacing="5"
       visible="true"
       enabled="true"
       snapvisiblegridlinesonly="true" />
    <sodipodi:guide
       orientation="1,0"
       position="179,-139"
       id="guide2828" />
    <sodipodi:guide
       orientation="0,1"
       position="79,-249"
       id="guide2836" />
    <sodipodi:guide
       orientation="1,0"
       position="214,-129"
       id="guide2838" />
    <sodipodi:guide
       orientation="1,0"
       position="224,-84.000002"
       id="guide2840" />
    <sodipodi:guide
       orientation="1,0"
       position="249,-139"
       id="guide2846" />
    <sodipodi:guide
       orientation="1,0"
       position="279,-144"
       id="guide2848" />
    <sodipodi:guide
       orientation="1,0"
       position="314,-169"
       id="guide2850" />
    <sodipodi:guide
       orientation="1,0"
       position="344,-164"
       id="guide2852" />
    <sodipodi:guide
       orientation="1,0"
       position="424,-124"
       id="guide2864" />
    <sodipodi:guide
       orientation="1,0"
       position="469,-129"
       id="guide2870" />
    <sodipodi:guide
       orientation="1,0"
       position="489,-139"
       id="guide2872" />
    <sodipodi:guide
       orientation="1,0"
       position="514,-139"
       id="guide2874" />
    <sodipodi:guide
       orientation="0,1"
       position="509,-164"
       id="guide2876" />
    <sodipodi:guide
       orientation="1,0"
       position="524,-144"
       id="guide2878" />
    <sodipodi:guide
       orientation="1,0"
       position="544,-174"
       id="guide2880" />
    <sodipodi:guide
       orientation="0,1"
       position="464,-89.000002"
       id="guide2882" />
    <sodipodi:guide
       orientation="1,0"
       position="634,-149"
       id="guide2884" />
    <sodipodi:guide
       orientation="0,1"
       position="489,-209"
       id="guide2886" />
    <sodipodi:guide
       orientation="0,1"
       position="489,-263.45951"
       id="guide2888" />
    <sodipodi:guide
       orientation="1,0"
       position="609.15945,-202.90107"
       id="guide2890" />
  </sodipodi:namedview>
  <metadata
     id="metadata7">
    <rdf:RDF>
      <cc:Work
         rdf:about="">
        <dc:format>image/svg+xml</dc:format>
        <dc:type
           rdf:resource="http://purl.org/dc/dcmitype/StillImage" />
        <dc:title>zte-logo</dc:title>
      </cc:Work>
    </rdf:RDF>
  </metadata>
  <g
     inkscape:label="Layer 1"
     inkscape:groupmode="layer"
     id="layer1"
     transform="translate(-26,-295.86218)">
    <g
       id="g2839">
      <path
         sodipodi:nodetypes="ccccccccccc"
         d="m 124,315.36218 -75,0 0,30 40,0 -45,130 c 0,8 8,15 15,15 l 67,0 0,-30 -42,0 40,-115 0,-30 z"
         style="font-size:144px;font-style:normal;font-weight:normal;fill:#004dff;fill-opacity:1;fill-rule:nonzero;stroke:none;font-family:Adobe Heiti Std;-inkscape-font-specification:Adobe Heiti Std"
         id="path2823" />
      <path
         sodipodi:nodetypes="ccccccccc"
         d="m 214,315.36218 -80,0 0,30 25,0 0,145 30,0 0,-145 25,0 0,-30 z"
         style="font-size:144px;font-style:normal;font-weight:normal;fill:#004dff;fill-opacity:1;stroke:none;font-family:Adobe Heiti Std;-inkscape-font-specification:Adobe Heiti Std"
         id="path2825" />
      <path
         sodipodi:nodetypes="ccccccccccccccccccccccccc"
         d="m 424,435.36218 0,-65 0,-25 -45,0 0,-30 -25,0 0,30 -45,0 0,75 c 0,10 5,15 15,15 l 30,0 0,55 25,0 0,-55 45,0 z m -45,-20 0,-45 20,0 0,45 -20,0 z m -45,0 0,-45 20,0 0,45 -20,0 z"
         style="font-size:144px;font-style:normal;font-weight:normal;fill:#000000;fill-opacity:1;stroke:none;font-family:Adobe Heiti Std;-inkscape-font-specification:Adobe Heiti Std"
         id="path2829" />
      <path
         sodipodi:nodetypes="cccccccccccccccccccccccccccccccc"
         d="m 514.20127,415.20993 -5.19041,0.008 -12.34929,13.1051 c 7.27579,26.69623 22.49788,47.03915 38.19238,61.49866 L 546,465.50874 c -8.62791,-3.80958 -26.84055,-23.67419 -31.79873,-50.29881 z M 478,428.36218 l -12,-13 -5,0 c -7,20 -13.98166,34.73723 -29,50.10585 l 6.20462,23.90148 C 454,475.36218 471.87988,452.6413 478,428.36218 z m -7,-53 c -2,-15 -12,-35 -22,-50 l -15,15 c 10,15 20,30 20,50 l 5,0 12,-15 z m 27.82816,-2.31563 C 498.20215,353.15176 495.59335,335.36218 485,313.36218 l -18,12 c 10.89841,19.0375 13.23256,37.07916 12.38001,57.11251 l 19.44815,-9.42814 z m 20.77766,17.31563 c 5.33354,-8.62717 15.25049,-37.44388 17.27398,-62.80914 l -17.68063,-12.19086 c -1.15633,29.97922 -10.08024,58.56426 -20.19917,75 l -65,0 0,25 110,0 0,-25 -24.39418,0 z"
         style="font-size:144px;font-style:normal;font-weight:normal;fill:#000000;fill-opacity:1;stroke:none;font-family:Adobe Heiti Std;-inkscape-font-specification:Adobe Heiti Std"
         id="path2831" />
      <path
         sodipodi:nodetypes="cccccccccccccc"
         d="m 294,460.36218 -40,0 0,-50 35,0 0,-30 -35,0 0,-35 40,0 0,-30 -70,0 0,160 c 0,10 5,15 15,15 l 55,0 0,-30 z"
         style="font-size:144px;font-style:normal;font-weight:normal;fill:#004dff;fill-opacity:1;stroke:none;font-family:Adobe Heiti Std;-inkscape-font-specification:Adobe Heiti Std"
         id="path2827" />
    </g>
  </g>
</svg>
